solid inlet
  facet normal 0.0000000e+00 0.0000000e+00 1.0000000e+00
    outer loop
      vertex 7.2186714e+01 -8.0992865e+00 2.7762121e+02
      vertex 7.5624437e+01 -1.0130870e+01 2.7762121e+02
      vertex 7.5824230e+01 -8.5074128e+00 2.7762121e+02
    endloop
  endfacet
  facet normal -0.0000000e+00 0.0000000e+00 1.0000000e+00
    outer loop
      vertex 7.1996505e+01 -9.6448616e+00 2.7762121e+02
      vertex 7.5624437e+01 -1.0130870e+01 2.7762121e+02
      vertex 7.2186714e+01 -8.0992865e+00 2.7762121e+02
    endloop
  endfacet
  facet normal -0.0000000e+00 0.0000000e+00 1.0000000e+00
    outer loop
      vertex 7.1773208e+01 -1.1186004e+01 2.7762121e+02
      vertex 7.5389888e+01 -1.1749671e+01 2.7762121e+02
      vertex 7.5624437e+01 -1.0130870e+01 2.7762121e+02
    endloop
  endfacet
  facet normal 0.0000000e+00 0.0000000e+00 1.0000000e+00
    outer loop
      vertex 7.1773208e+01 -1.1186004e+01 2.7762121e+02
      vertex 7.5624437e+01 -1.0130870e+01 2.7762121e+02
      vertex 7.1996505e+01 -9.6448616e+00 2.7762121e+02
    endloop
  endfacet
  facet normal -0.0000000e+00 0.0000000e+00 1.0000000e+00
    outer loop
      vertex 7.1516926e+01 -1.2722006e+01 2.7762121e+02
      vertex 7.5120692e+01 -1.3363072e+01 2.7762121e+02
      vertex 7.5389888e+01 -1.1749671e+01 2.7762121e+02
    endloop
  endfacet
  facet normal 0.0000000e+00 0.0000000e+00 1.0000000e+00
    outer loop
      vertex 7.1516926e+01 -1.2722006e+01 2.7762121e+02
      vertex 7.5389888e+01 -1.1749671e+01 2.7762121e+02
      vertex 7.1773208e+01 -1.1186004e+01 2.7762121e+02
    endloop
  endfacet
  facet normal -0.0000000e+00 0.0000000e+00 1.0000000e+00
    outer loop
      vertex 7.1227776e+01 -1.4252160e+01 2.7762121e+02
      vertex 7.4816971e+01 -1.4970332e+01 2.7762121e+02
      vertex 7.5120692e+01 -1.3363072e+01 2.7762121e+02
    endloop
  endfacet
  facet normal 0.0000000e+00 0.0000000e+00 1.0000000e+00
    outer loop
      vertex 7.1227776e+01 -1.4252160e+01 2.7762121e+02
      vertex 7.5120692e+01 -1.3363072e+01 2.7762121e+02
      vertex 7.1516926e+01 -1.2722006e+01 2.7762121e+02
    endloop
  endfacet
  facet normal -0.0000000e+00 0.0000000e+00 1.0000000e+00
    outer loop
      vertex 7.0905891e+01 -1.5775765e+01 2.7762121e+02
      vertex 7.4478866e+01 -1.6570712e+01 2.7762121e+02
      vertex 7.4816971e+01 -1.4970332e+01 2.7762121e+02
    endloop
  endfacet
  facet normal 0.0000000e+00 0.0000000e+00 1.0000000e+00
    outer loop
      vertex 7.0905891e+01 -1.5775765e+01 2.7762121e+02
      vertex 7.4106532e+01 -1.8163476e+01 2.7762121e+02
      vertex 7.4478866e+01 -1.6570712e+01 2.7762121e+02
    endloop
  endfacet
  facet normal 0.0000000e+00 0.0000000e+00 1.0000000e+00
    outer loop
      vertex 7.0905891e+01 -1.5775765e+01 2.7762121e+02
      vertex 7.4816971e+01 -1.4970332e+01 2.7762121e+02
      vertex 7.1227776e+01 -1.4252160e+01 2.7762121e+02
    endloop
  endfacet
  facet normal -0.0000000e+00 0.0000000e+00 1.0000000e+00
    outer loop
      vertex 7.0551419e+01 -1.7292120e+01 2.7762121e+02
      vertex 7.4106532e+01 -1.8163476e+01 2.7762121e+02
      vertex 7.0905891e+01 -1.5775765e+01 2.7762121e+02
    endloop
  endfacet
  facet normal -0.0000000e+00 0.0000000e+00 1.0000000e+00
    outer loop
      vertex 7.0164523e+01 -1.8800527e+01 2.7762121e+02
      vertex 7.3700141e+01 -1.9747893e+01 2.7762121e+02
      vertex 7.4106532e+01 -1.8163476e+01 2.7762121e+02
    endloop
  endfacet
  facet normal 0.0000000e+00 0.0000000e+00 1.0000000e+00
    outer loop
      vertex 7.0164523e+01 -1.8800527e+01 2.7762121e+02
      vertex 7.4106532e+01 -1.8163476e+01 2.7762121e+02
      vertex 7.0551419e+01 -1.7292120e+01 2.7762121e+02
    endloop
  endfacet
endsolid inlet
