solid wall-outlet
  facet normal -5.0000000e-01 -8.6602540e-01 3.1208485e-15
    outer loop
      vertex 1.6903232e+01 -9.7590856e+00 6.2745918e+01
      vertex 2.5479108e+01 -1.4710370e+01 5.4120000e+01
      vertex 1.7107846e+01 -9.8772195e+00 6.3330448e+01
    endloop
  endfacet
  facet normal -5.0000000e-01 -8.6602540e-01 -1.0741269e-15
    outer loop
      vertex 1.6712099e+01 -9.6487347e+00 6.2155336e+01
      vertex 2.5479108e+01 -1.4710370e+01 5.4120000e+01
      vertex 1.6903232e+01 -9.7590856e+00 6.2745918e+01
    endloop
  endfacet
  facet normal -5.0000000e-01 -8.6602540e-01 -3.6415923e-15
    outer loop
      vertex 1.6534580e+01 -9.5462443e+00 6.1559115e+01
      vertex 2.5479108e+01 -1.4710370e+01 5.4120000e+01
      vertex 1.6712099e+01 -9.6487347e+00 6.2155336e+01
    endloop
  endfacet
  facet normal -5.0000000e-01 -8.6602540e-01 6.8490041e-15
    outer loop
      vertex 1.6370801e+01 -9.4516862e+00 6.0957673e+01
      vertex 2.5479108e+01 -1.4710370e+01 5.4120000e+01
      vertex 1.6534580e+01 -9.5462443e+00 6.1559115e+01
    endloop
  endfacet
  facet normal -5.0000000e-01 -8.6602540e-01 -5.4778495e-15
    outer loop
      vertex 1.6220876e+01 -9.3651269e+00 6.0351433e+01
      vertex 2.5479108e+01 -1.4710370e+01 5.4120000e+01
      vertex 1.6370801e+01 -9.4516862e+00 6.0957673e+01
    endloop
  endfacet
  facet normal -5.0000000e-01 -8.6602540e-01 5.5614090e-15
    outer loop
      vertex 1.6084910e+01 -9.2866270e+00 5.9740820e+01
      vertex 2.5479108e+01 -1.4710370e+01 5.4120000e+01
      vertex 1.6220876e+01 -9.3651269e+00 6.0351433e+01
    endloop
  endfacet
  facet normal -5.0000000e-01 -8.6602540e-01 -5.6570761e-15
    outer loop
      vertex 1.5962999e+01 -9.2162417e+00 5.9126263e+01
      vertex 2.5479108e+01 -1.4710370e+01 5.4120000e+01
      vertex 1.6084910e+01 -9.2866270e+00 5.9740820e+01
    endloop
  endfacet
  facet normal -5.0000000e-01 -8.6602540e-01 -8.9841943e-17
    outer loop
      vertex 1.5855228e+01 -9.1540203e+00 5.8508193e+01
      vertex 2.5479108e+01 -1.4710370e+01 5.4120000e+01
      vertex 1.5962999e+01 -9.2162417e+00 5.9126263e+01
    endloop
  endfacet
  facet normal -5.0000000e-01 -8.6602540e-01 -4.2592665e-15
    outer loop
      vertex 1.5761674e+01 -9.1000065e+00 5.7887043e+01
      vertex 2.5479108e+01 -1.4710370e+01 5.4120000e+01
      vertex 1.5855228e+01 -9.1540203e+00 5.8508193e+01
    endloop
  endfacet
  facet normal -5.0000000e-01 -8.6602540e-01 3.3030496e-15
    outer loop
      vertex 1.5682401e+01 -9.0542383e+00 5.7263250e+01
      vertex 2.5479108e+01 -1.4710370e+01 5.4120000e+01
      vertex 1.5761674e+01 -9.1000065e+00 5.7887043e+01
    endloop
  endfacet
  facet normal -5.0000000e-01 -8.6602540e-01 6.3574404e-15
    outer loop
      vertex 1.5617465e+01 -9.0167476e+00 5.6637251e+01
      vertex 2.5479108e+01 -1.4710370e+01 5.4120000e+01
      vertex 1.5682401e+01 -9.0542383e+00 5.7263250e+01
    endloop
  endfacet
  facet normal -5.0000000e-01 -8.6602540e-01 6.6959204e-16
    outer loop
      vertex 1.5566912e+01 -8.9875609e+00 5.6009486e+01
      vertex 2.5479108e+01 -1.4710370e+01 5.4120000e+01
      vertex 1.5617465e+01 -9.0167476e+00 5.6637251e+01
    endloop
  endfacet
  facet normal -5.0000000e-01 -8.6602540e-01 -4.9187827e-16
    outer loop
      vertex 1.5530778e+01 -8.9666986e+00 5.5380394e+01
      vertex 2.5479108e+01 -1.4710370e+01 5.4120000e+01
      vertex 1.5566912e+01 -8.9875609e+00 5.6009486e+01
    endloop
  endfacet
  facet normal -5.0000000e-01 -8.6602540e-01 -2.4821599e-17
    outer loop
      vertex 1.5509087e+01 -8.9541754e+00 5.4750418e+01
      vertex 2.5479108e+01 -1.4710370e+01 5.4120000e+01
      vertex 1.5530778e+01 -8.9666986e+00 5.5380394e+01
    endloop
  endfacet
  facet normal -5.0000000e-01 -8.6602540e-01 -4.1091364e-15
    outer loop
      vertex 1.5501855e+01 -8.9500000e+00 5.4120000e+01
      vertex 2.5479108e+01 -1.4710370e+01 5.4120000e+01
      vertex 1.5509087e+01 -8.9541754e+00 5.4750418e+01
    endloop
  endfacet
  facet normal -5.0000000e-01 -8.6602540e-01 -1.7975379e-15
    outer loop
      vertex 2.5479108e+01 -1.4710370e+01 5.4120000e+01
      vertex 1.7325797e+01 -1.0003053e+01 6.3908514e+01
      vertex 1.7107846e+01 -9.8772195e+00 6.3330448e+01
    endloop
  endfacet
  facet normal -5.0000000e-01 -8.6602540e-01 -8.8928115e-16
    outer loop
      vertex 2.5479108e+01 -1.4710370e+01 5.4120000e+01
      vertex 1.7556932e+01 -1.0136499e+01 6.4479710e+01
      vertex 1.7325797e+01 -1.0003053e+01 6.3908514e+01
    endloop
  endfacet
  facet normal -5.0000000e-01 -8.6602540e-01 2.6383664e-15
    outer loop
      vertex 2.5479108e+01 -1.4710370e+01 5.4120000e+01
      vertex 1.7801088e+01 -1.0277463e+01 6.5043637e+01
      vertex 1.7556932e+01 -1.0136499e+01 6.4479710e+01
    endloop
  endfacet
  facet normal -5.0000000e-01 -8.6602540e-01 0.0000000e+00
    outer loop
      vertex 2.5479108e+01 -1.4710370e+01 5.4120000e+01
      vertex 1.8058095e+01 -1.0425846e+01 6.5599899e+01
      vertex 1.7801088e+01 -1.0277463e+01 6.5043637e+01
    endloop
  endfacet
  facet normal -5.0000000e-01 -8.6602540e-01 -3.4357280e-15
    outer loop
      vertex 2.5479108e+01 -1.4710370e+01 5.4120000e+01
      vertex 1.8327773e+01 -1.0581545e+01 6.6148104e+01
      vertex 1.8058095e+01 -1.0425846e+01 6.5599899e+01
    endloop
  endfacet
  facet normal -5.0000000e-01 -8.6602540e-01 1.6966071e-15
    outer loop
      vertex 2.5479108e+01 -1.4710370e+01 5.4120000e+01
      vertex 1.8609931e+01 -1.0744449e+01 6.6687869e+01
      vertex 1.8327773e+01 -1.0581545e+01 6.6148104e+01
    endloop
  endfacet
  facet normal -5.0000000e-01 -8.6602540e-01 -1.6749512e-15
    outer loop
      vertex 2.5479108e+01 -1.4710370e+01 5.4120000e+01
      vertex 1.8904372e+01 -1.0914444e+01 6.7218814e+01
      vertex 1.8609931e+01 -1.0744449e+01 6.6687869e+01
    endloop
  endfacet
  facet normal -5.0000000e-01 -8.6602540e-01 2.8926818e-15
    outer loop
      vertex 2.5479108e+01 -1.4710370e+01 5.4120000e+01
      vertex 1.9210889e+01 -1.1091412e+01 6.7740567e+01
      vertex 1.8904372e+01 -1.0914444e+01 6.7218814e+01
    endloop
  endfacet
  facet normal -5.0000000e-01 -8.6602540e-01 -3.2613981e-15
    outer loop
      vertex 2.5479108e+01 -1.4710370e+01 5.4120000e+01
      vertex 1.9529268e+01 -1.1275228e+01 6.8252762e+01
      vertex 1.9210889e+01 -1.1091412e+01 6.7740567e+01
    endloop
  endfacet
  facet normal -5.0000000e-01 -8.6602540e-01 -4.0205627e-16
    outer loop
      vertex 2.5479108e+01 -1.4710370e+01 5.4120000e+01
      vertex 1.9859284e+01 -1.1465763e+01 6.8755040e+01
      vertex 1.9529268e+01 -1.1275228e+01 6.8252762e+01
    endloop
  endfacet
  facet normal -5.0000000e-01 -8.6602540e-01 1.5855961e-15
    outer loop
      vertex 2.5479108e+01 -1.4710370e+01 5.4120000e+01
      vertex 2.0200707e+01 -1.1662883e+01 6.9247047e+01
      vertex 1.9859284e+01 -1.1465763e+01 6.8755040e+01
    endloop
  endfacet
  facet normal -5.0000000e-01 -8.6602540e-01 7.8143303e-16
    outer loop
      vertex 2.5479108e+01 -1.4710370e+01 5.4120000e+01
      vertex 2.0553296e+01 -1.1866451e+01 6.9728439e+01
      vertex 2.0200707e+01 -1.1662883e+01 6.9247047e+01
    endloop
  endfacet
  facet normal -5.0000000e-01 -8.6602540e-01 0.0000000e+00
    outer loop
      vertex 2.0553296e+01 -1.1866451e+01 6.9728439e+01
      vertex 6.6077738e+01 -3.8150000e+01 1.2284589e+02
      vertex 6.2907790e+01 -3.6319830e+01 1.2602571e+02
    endloop
  endfacet
  facet normal -5.0000000e-01 -8.6602540e-01 5.0634884e-17
    outer loop
      vertex 2.5479108e+01 -1.4710370e+01 5.4120000e+01
      vertex 6.6077738e+01 -3.8150000e+01 1.2284589e+02
      vertex 2.0553296e+01 -1.1866451e+01 6.9728439e+01
    endloop
  endfacet
  facet normal -5.0000000e-01 -8.6602540e-01 2.7326367e-16
    outer loop
      vertex 6.2907790e+01 -3.6319830e+01 1.2602571e+02
      vertex 6.6077738e+01 -3.8150000e+01 2.7762121e+02
      vertex 6.2907790e+01 -3.6319830e+01 2.7762121e+02
    endloop
  endfacet
  facet normal -5.0000000e-01 -8.6602540e-01 2.9060354e-16
    outer loop
      vertex 6.6077738e+01 -3.8150000e+01 1.2284589e+02
      vertex 6.6077738e+01 -3.8150000e+01 2.7762121e+02
      vertex 6.2907790e+01 -3.6319830e+01 1.2602571e+02
    endloop
  endfacet
endsolid wall-outlet
