solid wall-unutra
  facet normal -9.9993522e-01 1.1382336e-02 9.2222357e-17
    outer loop
      vertex 7.0721330e+01 -1.6102609e+00 2.7762121e+02
      vertex 7.0739659e+01 2.8337602e-14 1.2762121e+02
      vertex 7.0721330e+01 -1.6102609e+00 1.2762121e+02
    endloop
  endfacet
  facet normal -9.9941702e-01 3.4141110e-02 8.7153490e-17
    outer loop
      vertex 7.0721330e+01 -1.6102609e+00 2.7762121e+02
      vertex 7.0721330e+01 -1.6102609e+00 1.2762121e+02
      vertex 7.0666350e+01 -3.2196872e+00 1.2762121e+02
    endloop
  endfacet
  facet normal -9.9993522e-01 1.1382336e-02 9.2195982e-17
    outer loop
      vertex 7.0721330e+01 -1.6102609e+00 2.7762121e+02
      vertex 7.0739659e+01 6.1644293e-14 2.7762121e+02
      vertex 7.0739659e+01 2.8337602e-14 1.2762121e+02
    endloop
  endfacet
  facet normal -9.9941702e-01 3.4141110e-02 8.7204029e-17
    outer loop
      vertex 7.0666350e+01 -3.2196872e+00 2.7762121e+02
      vertex 7.0721330e+01 -1.6102609e+00 2.7762121e+02
      vertex 7.0666350e+01 -3.2196872e+00 1.2762121e+02
    endloop
  endfacet
  facet normal -9.9838090e-01 5.6882191e-02 8.2123661e-17
    outer loop
      vertex 7.0574749e+01 -4.8274451e+00 2.7762121e+02
      vertex 7.0666350e+01 -3.2196872e+00 1.2762121e+02
      vertex 7.0574749e+01 -4.8274451e+00 1.2762121e+02
    endloop
  endfacet
  facet normal -9.9838090e-01 5.6882191e-02 8.2156258e-17
    outer loop
      vertex 7.0574749e+01 -4.8274451e+00 2.7762121e+02
      vertex 7.0666350e+01 -3.2196872e+00 2.7762121e+02
      vertex 7.0666350e+01 -3.2196872e+00 1.2762121e+02
    endloop
  endfacet
  facet normal -9.9682738e-01 7.9593794e-02 7.7000733e-17
    outer loop
      vertex 7.0446574e+01 -6.4327012e+00 2.7762121e+02
      vertex 7.0574749e+01 -4.8274451e+00 1.2762121e+02
      vertex 7.0446574e+01 -6.4327012e+00 1.2762121e+02
    endloop
  endfacet
  facet normal -9.9475728e-01 1.0226415e-01 7.1837901e-17
    outer loop
      vertex 7.0446574e+01 -6.4327012e+00 2.7762121e+02
      vertex 7.0446574e+01 -6.4327012e+00 1.2762121e+02
      vertex 7.0281891e+01 -8.0346237e+00 1.2762121e+02
    endloop
  endfacet
  facet normal -9.9682738e-01 7.9593794e-02 7.6985584e-17
    outer loop
      vertex 7.0446574e+01 -6.4327012e+00 2.7762121e+02
      vertex 7.0574749e+01 -4.8274451e+00 2.7762121e+02
      vertex 7.0574749e+01 -4.8274451e+00 1.2762121e+02
    endloop
  endfacet
  facet normal -9.9475728e-01 1.0226415e-01 7.2443427e-17
    outer loop
      vertex 7.0281891e+01 -8.0346237e+00 2.7762121e+02
      vertex 7.0446574e+01 -6.4327012e+00 2.7762121e+02
      vertex 7.0281891e+01 -8.0346237e+00 1.2762121e+02
    endloop
  endfacet
  facet normal -9.9217166e-01 1.2488151e-01 6.8856182e-17
    outer loop
      vertex 7.0080786e+01 -9.6323824e+00 2.7762121e+02
      vertex 7.0281891e+01 -8.0346237e+00 1.2762121e+02
      vertex 7.0080786e+01 -9.6323824e+00 1.2762121e+02
    endloop
  endfacet
  facet normal -9.9217166e-01 1.2488151e-01 6.7333660e-17
    outer loop
      vertex 7.0080786e+01 -9.6323824e+00 2.7762121e+02
      vertex 7.0281891e+01 -8.0346237e+00 2.7762121e+02
      vertex 7.0281891e+01 -8.0346237e+00 1.2762121e+02
    endloop
  endfacet
  facet normal -9.8907187e-01 1.4743415e-01 6.5768174e-17
    outer loop
      vertex 6.9843363e+01 -1.1225149e+01 2.7762121e+02
      vertex 7.0080786e+01 -9.6323824e+00 1.2762121e+02
      vertex 6.9843363e+01 -1.1225149e+01 1.2762121e+02
    endloop
  endfacet
  facet normal -9.8907187e-01 1.4743415e-01 6.3886545e-17
    outer loop
      vertex 6.9843363e+01 -1.1225149e+01 2.7762121e+02
      vertex 7.0080786e+01 -9.6323824e+00 2.7762121e+02
      vertex 7.0080786e+01 -9.6323824e+00 1.2762121e+02
    endloop
  endfacet
  facet normal -9.8545952e-01 1.6991039e-01 6.1167190e-17
    outer loop
      vertex 6.9569746e+01 -1.2812099e+01 2.7762121e+02
      vertex 6.9843363e+01 -1.1225149e+01 1.2762121e+02
      vertex 6.9569746e+01 -1.2812099e+01 1.2762121e+02
    endloop
  endfacet
  facet normal -9.8545952e-01 1.6991039e-01 6.1128852e-17
    outer loop
      vertex 6.9569746e+01 -1.2812099e+01 2.7762121e+02
      vertex 6.9843363e+01 -1.1225149e+01 2.7762121e+02
      vertex 6.9843363e+01 -1.1225149e+01 1.2762121e+02
    endloop
  endfacet
  facet normal -9.8133647e-01 1.9229857e-01 5.4257234e-17
    outer loop
      vertex 6.9260075e+01 -1.4392409e+01 2.7762121e+02
      vertex 6.9569746e+01 -1.2812099e+01 1.2762121e+02
      vertex 6.9260075e+01 -1.4392409e+01 1.2762121e+02
    endloop
  endfacet
  facet normal -9.8133647e-01 1.9229857e-01 5.6532698e-17
    outer loop
      vertex 6.9260075e+01 -1.4392409e+01 2.7762121e+02
      vertex 6.9569746e+01 -1.2812099e+01 2.7762121e+02
      vertex 6.9569746e+01 -1.2812099e+01 1.2762121e+02
    endloop
  endfacet
  facet normal -9.7670486e-01 2.1458710e-01 4.9331303e-17
    outer loop
      vertex 6.8914511e+01 -1.5965261e+01 2.7762121e+02
      vertex 6.9260075e+01 -1.4392409e+01 1.2762121e+02
      vertex 6.8914511e+01 -1.5965261e+01 1.2762121e+02
    endloop
  endfacet
  facet normal -9.7670486e-01 2.1458710e-01 4.9178851e-17
    outer loop
      vertex 6.8914511e+01 -1.5965261e+01 2.7762121e+02
      vertex 6.9260075e+01 -1.4392409e+01 2.7762121e+02
      vertex 6.9260075e+01 -1.4392409e+01 1.2762121e+02
    endloop
  endfacet
  facet normal -9.7156709e-01 2.3676442e-01 4.1575953e-17
    outer loop
      vertex 6.8533234e+01 -1.7529838e+01 2.7762121e+02
      vertex 6.8914511e+01 -1.5965261e+01 1.2762121e+02
      vertex 6.8533234e+01 -1.7529838e+01 1.2762121e+02
    endloop
  endfacet
  facet normal -9.6592583e-01 2.5881905e-01 3.6340280e-17
    outer loop
      vertex 6.8533234e+01 -1.7529838e+01 2.7762121e+02
      vertex 6.8533234e+01 -1.7529838e+01 1.2762121e+02
      vertex 6.8116441e+01 -1.9085332e+01 1.2762121e+02
    endloop
  endfacet
  facet normal -9.7156709e-01 2.3676442e-01 4.4582697e-17
    outer loop
      vertex 6.8533234e+01 -1.7529838e+01 2.7762121e+02
      vertex 6.8914511e+01 -1.5965261e+01 2.7762121e+02
      vertex 6.8914511e+01 -1.5965261e+01 1.2762121e+02
    endloop
  endfacet
  facet normal -9.6592583e-01 2.5881905e-01 3.6340280e-17
    outer loop
      vertex 6.8116441e+01 -1.9085332e+01 2.7762121e+02
      vertex 6.8533234e+01 -1.7529838e+01 2.7762121e+02
      vertex 6.8116441e+01 -1.9085332e+01 1.2762121e+02
    endloop
  endfacet
  facet normal -9.5978399e-01 2.8073954e-01 3.1253849e-17
    outer loop
      vertex 6.7664348e+01 -2.0630934e+01 2.7762121e+02
      vertex 6.8116441e+01 -1.9085332e+01 2.7762121e+02
      vertex 6.8116441e+01 -1.9085332e+01 1.2762121e+02
    endloop
  endfacet
  facet normal -9.5978399e-01 2.8073954e-01 3.1085773e-17
    outer loop
      vertex 6.7664348e+01 -2.0630934e+01 2.7762121e+02
      vertex 6.8116441e+01 -1.9085332e+01 1.2762121e+02
      vertex 6.7664348e+01 -2.0630934e+01 1.2762121e+02
    endloop
  endfacet
  facet normal -9.5314477e-01 3.0251455e-01 2.5738464e-17
    outer loop
      vertex 6.7177189e+01 -2.2165846e+01 2.7762121e+02
      vertex 6.7664348e+01 -2.0630934e+01 2.7762121e+02
      vertex 6.7664348e+01 -2.0630934e+01 1.2762121e+02
    endloop
  endfacet
  facet normal -9.5314477e-01 3.0251455e-01 2.5815157e-17
    outer loop
      vertex 6.7177189e+01 -2.2165846e+01 2.7762121e+02
      vertex 6.7664348e+01 -2.0630934e+01 1.2762121e+02
      vertex 6.7177189e+01 -2.2165846e+01 1.2762121e+02
    endloop
  endfacet
  facet normal -9.4601159e-01 3.2413279e-01 2.0682694e-17
    outer loop
      vertex 6.6655217e+01 -2.3689270e+01 2.7762121e+02
      vertex 6.7177189e+01 -2.2165846e+01 2.7762121e+02
      vertex 6.7177189e+01 -2.2165846e+01 1.2762121e+02
    endloop
  endfacet
  facet normal -9.4601159e-01 3.2413279e-01 2.0531163e-17
    outer loop
      vertex 6.6655217e+01 -2.3689270e+01 2.7762121e+02
      vertex 6.7177189e+01 -2.2165846e+01 1.2762121e+02
      vertex 6.6655217e+01 -2.3689270e+01 1.2762121e+02
    endloop
  endfacet
  facet normal -9.3838817e-01 3.4558305e-01 1.5236529e-17
    outer loop
      vertex 6.6098702e+01 -2.5200417e+01 2.7762121e+02
      vertex 6.6655217e+01 -2.3689270e+01 1.2762121e+02
      vertex 6.6098702e+01 -2.5200417e+01 1.2762121e+02
    endloop
  endfacet
  facet normal -9.3838817e-01 3.4558305e-01 1.5167309e-17
    outer loop
      vertex 6.6098702e+01 -2.5200417e+01 2.7762121e+02
      vertex 6.6655217e+01 -2.3689270e+01 2.7762121e+02
      vertex 6.6655217e+01 -2.3689270e+01 1.2762121e+02
    endloop
  endfacet
  facet normal -9.3027844e-01 3.6685422e-01 9.9339986e-18
    outer loop
      vertex 6.6098702e+01 -2.5200417e+01 2.7762121e+02
      vertex 6.6098702e+01 -2.5200417e+01 1.2762121e+02
      vertex 6.5507932e+01 -2.6698505e+01 1.2762121e+02
    endloop
  endfacet
  facet normal -9.3027844e-01 3.6685422e-01 9.9339986e-18
    outer loop
      vertex 6.5507932e+01 -2.6698505e+01 2.7762121e+02
      vertex 6.6098702e+01 -2.5200417e+01 2.7762121e+02
      vertex 6.5507932e+01 -2.6698505e+01 1.2762121e+02
    endloop
  endfacet
  facet normal -9.2168662e-01 3.8793527e-01 1.3814473e-17
    outer loop
      vertex 6.4883215e+01 -2.8182757e+01 2.7762121e+02
      vertex 6.5507932e+01 -2.6698505e+01 1.2762121e+02
      vertex 6.4883215e+01 -2.8182757e+01 1.2762121e+02
    endloop
  endfacet
  facet normal -9.2168662e-01 3.8793527e-01 5.0557697e-18
    outer loop
      vertex 6.4883215e+01 -2.8182757e+01 2.7762121e+02
      vertex 6.5507932e+01 -2.6698505e+01 2.7762121e+02
      vertex 6.5507932e+01 -2.6698505e+01 1.2762121e+02
    endloop
  endfacet
  facet normal -9.1261715e-01 4.0881529e-01 8.9989358e-18
    outer loop
      vertex 6.4224873e+01 -2.9652404e+01 2.7762121e+02
      vertex 6.4883215e+01 -2.8182757e+01 1.2762121e+02
      vertex 6.4224873e+01 -2.9652404e+01 1.2762121e+02
    endloop
  endfacet
  facet normal -9.1261715e-01 4.0881529e-01 9.1923086e-18
    outer loop
      vertex 6.4224873e+01 -2.9652404e+01 2.7762121e+02
      vertex 6.4883215e+01 -2.8182757e+01 2.7762121e+02
      vertex 6.4883215e+01 -2.8182757e+01 1.2762121e+02
    endloop
  endfacet
  facet normal -9.0307473e-01 4.2948344e-01 4.1787346e-18
    outer loop
      vertex 6.3533248e+01 -3.1106684e+01 2.7762121e+02
      vertex 6.4224873e+01 -2.9652404e+01 1.2762121e+02
      vertex 6.3533248e+01 -3.1106684e+01 1.2762121e+02
    endloop
  endfacet
  facet normal -8.9306432e-01 4.4992903e-01 -6.4363206e-19
    outer loop
      vertex 6.3533248e+01 -3.1106684e+01 2.7762121e+02
      vertex 6.3533248e+01 -3.1106684e+01 1.2762121e+02
      vertex 6.2808698e+01 -3.2544844e+01 1.2762121e+02
    endloop
  endfacet
  facet normal -9.0307473e-01 4.2948344e-01 3.6769234e-18
    outer loop
      vertex 6.3533248e+01 -3.1106684e+01 2.7762121e+02
      vertex 6.4224873e+01 -2.9652404e+01 2.7762121e+02
      vertex 6.4224873e+01 -2.9652404e+01 1.2762121e+02
    endloop
  endfacet
  facet normal -8.9306432e-01 4.4992903e-01 2.0669288e-17
    outer loop
      vertex 6.2808698e+01 -3.2544844e+01 2.7762121e+02
      vertex 6.3533248e+01 -3.1106684e+01 2.7762121e+02
      vertex 6.2808698e+01 -3.2544844e+01 1.2762121e+02
    endloop
  endfacet
  facet normal -8.8259109e-01 4.7014144e-01 -2.5003205e-17
    outer loop
      vertex 6.2051598e+01 -3.3966138e+01 2.7762121e+02
      vertex 6.2808698e+01 -3.2544844e+01 1.2762121e+02
      vertex 6.2051598e+01 -3.3966138e+01 1.2762121e+02
    endloop
  endfacet
  facet normal -8.7166047e-01 4.9011022e-01 -2.8358717e-17
    outer loop
      vertex 6.2051598e+01 -3.3966138e+01 2.7762121e+02
      vertex 6.2051598e+01 -3.3966138e+01 1.2762121e+02
      vertex 6.1262342e+01 -3.5369830e+01 1.2762121e+02
    endloop
  endfacet
  facet normal -8.8259109e-01 4.7014144e-01 1.7465386e-17
    outer loop
      vertex 6.2051598e+01 -3.3966138e+01 2.7762121e+02
      vertex 6.2808698e+01 -3.2544844e+01 2.7762121e+02
      vertex 6.2808698e+01 -3.2544844e+01 1.2762121e+02
    endloop
  endfacet
  facet normal -8.7166047e-01 4.9011022e-01 -1.0284866e-17
    outer loop
      vertex 6.1262342e+01 -3.5369830e+01 2.7762121e+02
      vertex 6.2051598e+01 -3.3966138e+01 2.7762121e+02
      vertex 6.1262342e+01 -3.5369830e+01 1.2762121e+02
    endloop
  endfacet
  facet normal -9.5884084e-01 1.2551914e-02 -2.8366653e-01
    outer loop
      vertex 1.7741936e+01 1.0431165e-14 4.6977791e+01
      vertex 1.8993551e+01 -9.0477437e-01 4.2707083e+01
      vertex 1.7735856e+01 -4.6442973e-01 4.6977791e+01
    endloop
  endfacet
  facet normal -9.5753092e-01 3.7621492e-02 -2.8586564e-01
    outer loop
      vertex 1.7735856e+01 -4.6442973e-01 4.6977791e+01
      vertex 1.8993551e+01 -9.0477437e-01 4.2707083e+01
      vertex 1.7717621e+01 -9.2854117e-01 4.6977791e+01
    endloop
  endfacet
  facet normal -9.5636321e-01 6.2683357e-02 -2.8537730e-01
    outer loop
      vertex 1.7717621e+01 -9.2854117e-01 4.6977791e+01
      vertex 1.8993551e+01 -9.0477437e-01 4.2707083e+01
      vertex 1.7687243e+01 -1.3920162e+00 4.6977791e+01
    endloop
  endfacet
  facet normal -9.5421673e-01 8.7680200e-02 -2.8597660e-01
    outer loop
      vertex 1.7687243e+01 -1.3920162e+00 4.6977791e+01
      vertex 1.8928987e+01 -1.8074991e+00 4.2707083e+01
      vertex 1.7644743e+01 -1.8545373e+00 4.6977791e+01
    endloop
  endfacet
  facet normal -9.5188350e-01 1.1266284e-01 -2.8499981e-01
    outer loop
      vertex 1.7644743e+01 -1.8545373e+00 4.6977791e+01
      vertex 1.8928987e+01 -1.8074991e+00 4.2707083e+01
      vertex 1.7590151e+01 -2.3157873e+00 4.6977791e+01
    endloop
  endfacet
  facet normal -9.5618272e-01 6.8387538e-02 -2.8467131e-01
    outer loop
      vertex 1.8993551e+01 -9.0477437e-01 4.2707083e+01
      vertex 1.8928987e+01 -1.8074991e+00 4.2707083e+01
      vertex 1.7687243e+01 -1.3920162e+00 4.6977791e+01
    endloop
  endfacet
  facet normal -9.4831363e-01 1.3749893e-01 -2.8599879e-01
    outer loop
      vertex 1.7590151e+01 -2.3157873e+00 4.6977791e+01
      vertex 1.8821543e+01 -2.7061293e+00 4.2707083e+01
      vertex 1.7523503e+01 -2.7754502e+00 4.6977791e+01
    endloop
  endfacet
  facet normal -9.5179677e-01 1.1380124e-01 -2.8483713e-01
    outer loop
      vertex 1.8928987e+01 -1.8074991e+00 4.2707083e+01
      vertex 1.8821543e+01 -2.7061293e+00 4.2707083e+01
      vertex 1.7590151e+01 -2.3157873e+00 4.6977791e+01
    endloop
  endfacet
  facet normal -9.4462407e-01 1.6231610e-01 -2.8519967e-01
    outer loop
      vertex 1.7523503e+01 -2.7754502e+00 4.6977791e+01
      vertex 1.8671462e+01 -3.5986293e+00 4.2707083e+01
      vertex 1.7444845e+01 -3.2332110e+00 4.6977791e+01
    endloop
  endfacet
  facet normal -9.3983734e-01 1.8694527e-01 -2.8593222e-01
    outer loop
      vertex 1.7444845e+01 -3.2332110e+00 4.6977791e+01
      vertex 1.8671462e+01 -3.5986293e+00 4.2707083e+01
      vertex 1.7354232e+01 -3.6887558e+00 4.6977791e+01
    endloop
  endfacet
  facet normal -9.4533115e-01 1.5896525e-01 -2.8474386e-01
    outer loop
      vertex 1.8821543e+01 -2.7061293e+00 4.2707083e+01
      vertex 1.8671462e+01 -3.5986293e+00 4.2707083e+01
      vertex 1.7523503e+01 -2.7754502e+00 4.6977791e+01
    endloop
  endfacet
  facet normal -9.5807332e-01 2.2806398e-02 -2.8561406e-01
    outer loop
      vertex 1.7741936e+01 1.0431165e-14 4.6977791e+01
      vertex 2.0265263e+01 -9.6535345e-01 3.8436374e+01
      vertex 1.8993551e+01 -9.0477437e-01 4.2707083e+01
    endloop
  endfacet
  facet normal -9.3473781e-01 2.1150957e-01 -2.8553270e-01
    outer loop
      vertex 1.7354232e+01 -3.6887558e+00 4.6977791e+01
      vertex 1.8479084e+01 -4.4829772e+00 4.2707083e+01
      vertex 1.7251725e+01 -4.1417726e+00 4.6977791e+01
    endloop
  endfacet
  facet normal -9.2881029e-01 2.3588776e-01 -2.8577687e-01
    outer loop
      vertex 1.7251725e+01 -4.1417726e+00 4.6977791e+01
      vertex 1.8479084e+01 -4.4829772e+00 4.2707083e+01
      vertex 1.7137394e+01 -4.5919508e+00 4.6977791e+01
    endloop
  endfacet
  facet normal -9.3673263e-01 2.0377371e-01 -2.8461948e-01
    outer loop
      vertex 1.8671462e+01 -3.5986293e+00 4.2707083e+01
      vertex 1.8479084e+01 -4.4829772e+00 4.2707083e+01
      vertex 1.7354232e+01 -3.6887558e+00 4.6977791e+01
    endloop
  endfacet
  facet normal -9.5590297e-01 6.8367530e-02 -2.8561406e-01
    outer loop
      vertex 2.0265263e+01 -9.6535345e-01 3.8436374e+01
      vertex 2.0196376e+01 -1.9285201e+00 3.8436374e+01
      vertex 1.8993551e+01 -9.0477437e-01 4.2707083e+01
    endloop
  endfacet
  facet normal -9.5590297e-01 6.8367530e-02 -2.8561406e-01
    outer loop
      vertex 1.8993551e+01 -9.0477437e-01 4.2707083e+01
      vertex 2.0196376e+01 -1.9285201e+00 3.8436374e+01
      vertex 1.8928987e+01 -1.8074991e+00 4.2707083e+01
    endloop
  endfacet
  facet normal -9.2231718e-01 2.6012035e-01 -2.8577687e-01
    outer loop
      vertex 1.7137394e+01 -4.5919508e+00 4.6977791e+01
      vertex 1.8244844e+01 -5.3571697e+00 4.2707083e+01
      vertex 1.7011318e+01 -5.0389820e+00 4.6977791e+01
    endloop
  endfacet
  facet normal -9.1526148e-01 2.8419624e-01 -2.8553270e-01
    outer loop
      vertex 1.7011318e+01 -5.0389820e+00 4.6977791e+01
      vertex 1.8244844e+01 -5.3571697e+00 4.2707083e+01
      vertex 1.6873584e+01 -5.4825596e+00 4.6977791e+01
    endloop
  endfacet
  facet normal -9.2598758e-01 2.4811762e-01 -2.8457802e-01
    outer loop
      vertex 1.8479084e+01 -4.4829772e+00 4.2707083e+01
      vertex 1.8244844e+01 -5.3571697e+00 4.2707083e+01
      vertex 1.7137394e+01 -4.5919508e+00 4.6977791e+01
    endloop
  endfacet
  facet normal -9.5156720e-01 1.1377379e-01 -2.8561406e-01
    outer loop
      vertex 2.0196376e+01 -1.9285201e+00 3.8436374e+01
      vertex 2.0081737e+01 -2.8873179e+00 3.8436374e+01
      vertex 1.8928987e+01 -1.8074991e+00 4.2707083e+01
    endloop
  endfacet
  facet normal -9.5156720e-01 1.1377379e-01 -2.8561406e-01
    outer loop
      vertex 1.8928987e+01 -1.8074991e+00 4.2707083e+01
      vertex 2.0081737e+01 -2.8873179e+00 3.8436374e+01
      vertex 1.8821543e+01 -2.7061293e+00 4.2707083e+01
    endloop
  endfacet
  facet normal -9.0739565e-01 3.0801932e-01 -2.8593222e-01
    outer loop
      vertex 1.6873584e+01 -5.4825596e+00 4.6977791e+01
      vertex 1.7969275e+01 -6.2192265e+00 4.2707083e+01
      vertex 1.6724285e+01 -5.9223798e+00 4.6977791e+01
    endloop
  endfacet
  facet normal -8.9922649e-01 3.3174217e-01 -2.8519967e-01
    outer loop
      vertex 1.6724285e+01 -5.9223798e+00 4.6977791e+01
      vertex 1.7969275e+01 -6.2192265e+00 4.2707083e+01
      vertex 1.6563524e+01 -6.3581411e+00 4.6977791e+01
    endloop
  endfacet
  facet normal -9.1312111e-01 2.9189311e-01 -2.8461948e-01
    outer loop
      vertex 1.8244844e+01 -5.3571697e+00 4.2707083e+01
      vertex 1.7969275e+01 -6.2192265e+00 4.2707083e+01
      vertex 1.6873584e+01 -5.4825596e+00 4.6977791e+01
    endloop
  endfacet
  facet normal -9.4507582e-01 1.5892231e-01 -2.8561406e-01
    outer loop
      vertex 2.0081737e+01 -2.8873179e+00 3.8436374e+01
      vertex 1.9921608e+01 -3.8395751e+00 3.8436374e+01
      vertex 1.8821543e+01 -2.7061293e+00 4.2707083e+01
    endloop
  endfacet
  facet normal -9.4507582e-01 1.5892231e-01 -2.8561406e-01
    outer loop
      vertex 1.8821543e+01 -2.7061293e+00 4.2707083e+01
      vertex 1.9921608e+01 -3.8395751e+00 3.8436374e+01
      vertex 1.8671462e+01 -3.5986293e+00 4.2707083e+01
    endloop
  endfacet
  facet normal -8.9001316e-01 3.5507925e-01 -2.8599879e-01
    outer loop
      vertex 1.6563524e+01 -6.3581411e+00 4.6977791e+01
      vertex 1.7652999e+01 -7.0671947e+00 4.2707083e+01
      vertex 1.6391411e+01 -6.7895448e+00 4.6977791e+01
    endloop
  endfacet
  facet normal -8.9816342e-01 3.3499763e-01 -2.8474386e-01
    outer loop
      vertex 1.7969275e+01 -6.2192265e+00 4.2707083e+01
      vertex 1.7652999e+01 -7.0671947e+00 4.2707083e+01
      vertex 1.6563524e+01 -6.3581411e+00 4.6977791e+01
    endloop
  endfacet
  facet normal -9.5807332e-01 2.2806398e-02 -2.8561406e-01
    outer loop
      vertex 1.7741936e+01 1.0431165e-14 4.6977791e+01
      vertex 2.1536974e+01 -1.0259325e+00 3.4165666e+01
      vertex 2.0265263e+01 -9.6535345e-01 3.8436374e+01
    endloop
  endfacet
  facet normal -9.3644354e-01 2.0371082e-01 -2.8561406e-01
    outer loop
      vertex 1.8671462e+01 -3.5986293e+00 4.2707083e+01
      vertex 1.9716349e+01 -4.7831345e+00 3.8436374e+01
      vertex 1.8479084e+01 -4.4829772e+00 4.2707083e+01
    endloop
  endfacet
  facet normal -9.3644354e-01 2.0371082e-01 -2.8561406e-01
    outer loop
      vertex 1.9921608e+01 -3.8395751e+00 3.8436374e+01
      vertex 1.9716349e+01 -4.7831345e+00 3.8436374e+01
      vertex 1.8671462e+01 -3.5986293e+00 4.2707083e+01
    endloop
  endfacet
  facet normal -8.8068671e-01 3.7837287e-01 -2.8499981e-01
    outer loop
      vertex 1.6391411e+01 -6.7895448e+00 4.6977791e+01
      vertex 1.7296733e+01 -7.8991535e+00 4.2707083e+01
      vertex 1.6208065e+01 -7.2162953e+00 4.6977791e+01
    endloop
  endfacet
  facet normal -8.7021603e-01 4.0117508e-01 -2.8597660e-01
    outer loop
      vertex 1.6208065e+01 -7.2162953e+00 4.6977791e+01
      vertex 1.7296733e+01 -7.8991535e+00 4.2707083e+01
      vertex 1.6013610e+01 -7.6381002e+00 4.6977791e+01
    endloop
  endfacet
  facet normal -8.8118080e-01 3.7734362e-01 -2.8483713e-01
    outer loop
      vertex 1.7652999e+01 -7.0671947e+00 4.2707083e+01
      vertex 1.7296733e+01 -7.8991535e+00 4.2707083e+01
      vertex 1.6391411e+01 -6.7895448e+00 4.6977791e+01
    endloop
  endfacet
  facet normal -9.5590297e-01 6.8367530e-02 -2.8561406e-01
    outer loop
      vertex 2.1536974e+01 -1.0259325e+00 3.4165666e+01
      vertex 2.1463764e+01 -2.0495410e+00 3.4165666e+01
      vertex 2.0265263e+01 -9.6535345e-01 3.8436374e+01
    endloop
  endfacet
  facet normal -9.5590297e-01 6.8367530e-02 -2.8561406e-01
    outer loop
      vertex 2.0265263e+01 -9.6535345e-01 3.8436374e+01
      vertex 2.1463764e+01 -2.0495410e+00 3.4165666e+01
      vertex 2.0196376e+01 -1.9285201e+00 3.8436374e+01
    endloop
  endfacet
  facet normal -9.2568992e-01 2.4803787e-01 -2.8561406e-01
    outer loop
      vertex 1.9716349e+01 -4.7831345e+00 3.8436374e+01
      vertex 1.9466426e+01 -5.7158584e+00 3.8436374e+01
      vertex 1.8479084e+01 -4.4829772e+00 4.2707083e+01
    endloop
  endfacet
  facet normal -9.2568992e-01 2.4803787e-01 -2.8561406e-01
    outer loop
      vertex 1.8479084e+01 -4.4829772e+00 4.2707083e+01
      vertex 1.9466426e+01 -5.7158584e+00 3.8436374e+01
      vertex 1.8244844e+01 -5.3571697e+00 4.2707083e+01
    endloop
  endfacet
  facet normal -8.5957651e-01 4.2389623e-01 -2.8537730e-01
    outer loop
      vertex 1.6013610e+01 -7.6381002e+00 4.6977791e+01
      vertex 1.6901285e+01 -8.7132181e+00 4.2707083e+01
      vertex 1.5808180e+01 -8.0546702e+00 4.6977791e+01
    endloop
  endfacet
  facet normal -8.4805685e-01 4.4618429e-01 -2.8586564e-01
    outer loop
      vertex 1.5808180e+01 -8.0546702e+00 4.6977791e+01
      vertex 1.6901285e+01 -8.7132181e+00 4.2707083e+01
      vertex 1.5591917e+01 -8.4657200e+00 4.6977791e+01
    endloop
  endfacet
  facet normal -8.3665648e-01 4.6855014e-01 -2.8366653e-01
    outer loop
      vertex 1.5591917e+01 -8.4657200e+00 4.6977791e+01
      vertex 1.6901285e+01 -8.7132181e+00 4.2707083e+01
      vertex 1.5364967e+01 -8.8709678e+00 4.6977791e+01
    endloop
  endfacet
  facet normal -8.6227229e-01 4.1886601e-01 -2.8467131e-01
    outer loop
      vertex 1.7296733e+01 -7.8991535e+00 4.2707083e+01
      vertex 1.6901285e+01 -8.7132181e+00 4.2707083e+01
      vertex 1.6013610e+01 -7.6381002e+00 4.6977791e+01
    endloop
  endfacet
  facet normal -9.5156720e-01 1.1377379e-01 -2.8561406e-01
    outer loop
      vertex 2.1463764e+01 -2.0495410e+00 3.4165666e+01
      vertex 2.1341932e+01 -3.0685066e+00 3.4165666e+01
      vertex 2.0196376e+01 -1.9285201e+00 3.8436374e+01
    endloop
  endfacet
  facet normal -9.5156720e-01 1.1377379e-01 -2.8561406e-01
    outer loop
      vertex 2.0196376e+01 -1.9285201e+00 3.8436374e+01
      vertex 2.1341932e+01 -3.0685066e+00 3.4165666e+01
      vertex 2.0081737e+01 -2.8873179e+00 3.8436374e+01
    endloop
  endfacet
  facet normal -9.1283931e-01 2.9180302e-01 -2.8561406e-01
    outer loop
      vertex 1.8244844e+01 -5.3571697e+00 4.2707083e+01
      vertex 1.9172406e+01 -6.6356342e+00 3.8436374e+01
      vertex 1.7969275e+01 -6.2192265e+00 4.2707083e+01
    endloop
  endfacet
  facet normal -8.9792082e-01 3.3490715e-01 -2.8561406e-01
    outer loop
      vertex 1.7969275e+01 -6.2192265e+00 4.2707083e+01
      vertex 1.9172406e+01 -6.6356342e+00 3.8436374e+01
      vertex 1.7652999e+01 -7.0671947e+00 4.2707083e+01
    endloop
  endfacet
  facet normal -9.1283931e-01 2.9180302e-01 -2.8561406e-01
    outer loop
      vertex 1.9466426e+01 -5.7158584e+00 3.8436374e+01
      vertex 1.9172406e+01 -6.6356342e+00 3.8436374e+01
      vertex 1.8244844e+01 -5.3571697e+00 4.2707083e+01
    endloop
  endfacet
  facet normal -9.4507582e-01 1.5892231e-01 -2.8561406e-01
    outer loop
      vertex 2.1341932e+01 -3.0685066e+00 3.4165666e+01
      vertex 2.1171753e+01 -4.0805210e+00 3.4165666e+01
      vertex 2.0081737e+01 -2.8873179e+00 3.8436374e+01
    endloop
  endfacet
  facet normal -9.4507582e-01 1.5892231e-01 -2.8561406e-01
    outer loop
      vertex 2.0081737e+01 -2.8873179e+00 3.8436374e+01
      vertex 2.1171753e+01 -4.0805210e+00 3.4165666e+01
      vertex 1.9921608e+01 -3.8395751e+00 3.8436374e+01
    endloop
  endfacet
  facet normal -8.9792082e-01 3.3490715e-01 -2.8561406e-01
    outer loop
      vertex 1.9172406e+01 -6.6356342e+00 3.8436374e+01
      vertex 1.8834954e+01 -7.5403780e+00 3.8436374e+01
      vertex 1.7652999e+01 -7.0671947e+00 4.2707083e+01
    endloop
  endfacet
  facet normal -9.5807332e-01 2.2806398e-02 -2.8561406e-01
    outer loop
      vertex 1.7741936e+01 1.0431165e-14 4.6977791e+01
      vertex 2.2808686e+01 -1.0865116e+00 2.9894958e+01
      vertex 2.1536974e+01 -1.0259325e+00 3.4165666e+01
    endloop
  endfacet
  facet normal -9.3644354e-01 2.0371082e-01 -2.8561406e-01
    outer loop
      vertex 2.1171753e+01 -4.0805210e+00 3.4165666e+01
      vertex 2.0953614e+01 -5.0832917e+00 3.4165666e+01
      vertex 1.9921608e+01 -3.8395751e+00 3.8436374e+01
    endloop
  endfacet
  facet normal -9.3644354e-01 2.0371082e-01 -2.8561406e-01
    outer loop
      vertex 1.9921608e+01 -3.8395751e+00 3.8436374e+01
      vertex 2.0953614e+01 -5.0832917e+00 3.4165666e+01
      vertex 1.9716349e+01 -4.7831345e+00 3.8436374e+01
    endloop
  endfacet
  facet normal -8.8096826e-01 3.7725261e-01 -2.8561406e-01
    outer loop
      vertex 1.8834954e+01 -7.5403780e+00 3.8436374e+01
      vertex 1.8454834e+01 -8.4280405e+00 3.8436374e+01
      vertex 1.7652999e+01 -7.0671947e+00 4.2707083e+01
    endloop
  endfacet
  facet normal -8.8096826e-01 3.7725261e-01 -2.8561406e-01
    outer loop
      vertex 1.7652999e+01 -7.0671947e+00 4.2707083e+01
      vertex 1.8454834e+01 -8.4280405e+00 3.8436374e+01
      vertex 1.7296733e+01 -7.8991535e+00 4.2707083e+01
    endloop
  endfacet
  facet normal -9.5590297e-01 6.8367530e-02 -2.8561406e-01
    outer loop
      vertex 2.1536974e+01 -1.0259325e+00 3.4165666e+01
      vertex 2.2731153e+01 -2.1705619e+00 2.9894958e+01
      vertex 2.1463764e+01 -2.0495410e+00 3.4165666e+01
    endloop
  endfacet
  facet normal -9.5590297e-01 6.8367530e-02 -2.8561406e-01
    outer loop
      vertex 2.2808686e+01 -1.0865116e+00 2.9894958e+01
      vertex 2.2731153e+01 -2.1705619e+00 2.9894958e+01
      vertex 2.1536974e+01 -1.0259325e+00 3.4165666e+01
    endloop
  endfacet
  facet normal -9.2568992e-01 2.4803787e-01 -2.8561406e-01
    outer loop
      vertex 2.0953614e+01 -5.0832917e+00 3.4165666e+01
      vertex 2.0688008e+01 -6.0745472e+00 3.4165666e+01
      vertex 1.9716349e+01 -4.7831345e+00 3.8436374e+01
    endloop
  endfacet
  facet normal -9.2568992e-01 2.4803787e-01 -2.8561406e-01
    outer loop
      vertex 1.9716349e+01 -4.7831345e+00 3.8436374e+01
      vertex 2.0688008e+01 -6.0745472e+00 3.4165666e+01
      vertex 1.9466426e+01 -5.7158584e+00 3.8436374e+01
    endloop
  endfacet
  facet normal -8.6202002e-01 4.1874347e-01 -2.8561406e-01
    outer loop
      vertex 1.7296733e+01 -7.8991535e+00 4.2707083e+01
      vertex 1.8032909e+01 -9.2966108e+00 3.8436374e+01
      vertex 1.6901285e+01 -8.7132181e+00 4.2707083e+01
    endloop
  endfacet
  facet normal -8.6202002e-01 4.1874347e-01 -2.8561406e-01
    outer loop
      vertex 1.8454834e+01 -8.4280405e+00 3.8436374e+01
      vertex 1.8032909e+01 -9.2966108e+00 3.8436374e+01
      vertex 1.7296733e+01 -7.8991535e+00 4.2707083e+01
    endloop
  endfacet
  facet normal -8.4111903e-01 4.5928574e-01 -2.8561406e-01
    outer loop
      vertex 1.6901285e+01 -8.7132181e+00 4.2707083e+01
      vertex 1.8032909e+01 -9.2966108e+00 3.8436374e+01
      vertex 1.5364967e+01 -8.8709678e+00 4.6977791e+01
    endloop
  endfacet
  facet normal -9.5156720e-01 1.1377379e-01 -2.8561406e-01
    outer loop
      vertex 2.1463764e+01 -2.0495410e+00 3.4165666e+01
      vertex 2.2602127e+01 -3.2496952e+00 2.9894958e+01
      vertex 2.1341932e+01 -3.0685066e+00 3.4165666e+01
    endloop
  endfacet
  facet normal -9.4507582e-01 1.5892231e-01 -2.8561406e-01
    outer loop
      vertex 2.1341932e+01 -3.0685066e+00 3.4165666e+01
      vertex 2.2602127e+01 -3.2496952e+00 2.9894958e+01
      vertex 2.1171753e+01 -4.0805210e+00 3.4165666e+01
    endloop
  endfacet
  facet normal -9.5156720e-01 1.1377379e-01 -2.8561406e-01
    outer loop
      vertex 2.2731153e+01 -2.1705619e+00 2.9894958e+01
      vertex 2.2602127e+01 -3.2496952e+00 2.9894958e+01
      vertex 2.1463764e+01 -2.0495410e+00 3.4165666e+01
    endloop
  endfacet
  facet normal -8.9792082e-01 3.3490715e-01 -2.8561406e-01
    outer loop
      vertex 1.9172406e+01 -6.6356342e+00 3.8436374e+01
      vertex 2.0375537e+01 -7.0520418e+00 3.4165666e+01
      vertex 1.8834954e+01 -7.5403780e+00 3.8436374e+01
    endloop
  endfacet
  facet normal -9.1283931e-01 2.9180302e-01 -2.8561406e-01
    outer loop
      vertex 1.9466426e+01 -5.7158584e+00 3.8436374e+01
      vertex 2.0375537e+01 -7.0520418e+00 3.4165666e+01
      vertex 1.9172406e+01 -6.6356342e+00 3.8436374e+01
    endloop
  endfacet
  facet normal -9.1283931e-01 2.9180302e-01 -2.8561406e-01
    outer loop
      vertex 2.0688008e+01 -6.0745472e+00 3.4165666e+01
      vertex 2.0375537e+01 -7.0520418e+00 3.4165666e+01
      vertex 1.9466426e+01 -5.7158584e+00 3.8436374e+01
    endloop
  endfacet
  facet normal -9.4507582e-01 1.5892231e-01 -2.8561406e-01
    outer loop
      vertex 2.2602127e+01 -3.2496952e+00 2.9894958e+01
      vertex 2.2421899e+01 -4.3214669e+00 2.9894958e+01
      vertex 2.1171753e+01 -4.0805210e+00 3.4165666e+01
    endloop
  endfacet
  facet normal -8.9792082e-01 3.3490715e-01 -2.8561406e-01
    outer loop
      vertex 2.0375537e+01 -7.0520418e+00 3.4165666e+01
      vertex 2.0016909e+01 -8.0135614e+00 3.4165666e+01
      vertex 1.8834954e+01 -7.5403780e+00 3.8436374e+01
    endloop
  endfacet
  facet normal -9.5590297e-01 6.8367530e-02 -2.8561406e-01
    outer loop
      vertex 2.2808686e+01 -1.0865116e+00 2.9894958e+01
      vertex 2.4080397e+01 -1.1470907e+00 2.5624250e+01
      vertex 2.2731153e+01 -2.1705619e+00 2.9894958e+01
    endloop
  endfacet
  facet normal -9.5807332e-01 2.2806398e-02 -2.8561406e-01
    outer loop
      vertex 1.7741936e+01 1.0431165e-14 4.6977791e+01
      vertex 2.4080397e+01 -1.1470907e+00 2.5624250e+01
      vertex 2.2808686e+01 -1.0865116e+00 2.9894958e+01
    endloop
  endfacet
  facet normal -9.3644354e-01 2.0371082e-01 -2.8561406e-01
    outer loop
      vertex 2.1171753e+01 -4.0805210e+00 3.4165666e+01
      vertex 2.2190879e+01 -5.3834490e+00 2.9894958e+01
      vertex 2.0953614e+01 -5.0832917e+00 3.4165666e+01
    endloop
  endfacet
  facet normal -9.3644354e-01 2.0371082e-01 -2.8561406e-01
    outer loop
      vertex 2.2421899e+01 -4.3214669e+00 2.9894958e+01
      vertex 2.2190879e+01 -5.3834490e+00 2.9894958e+01
      vertex 2.1171753e+01 -4.0805210e+00 3.4165666e+01
    endloop
  endfacet
  facet normal -8.8096826e-01 3.7725261e-01 -2.8561406e-01
    outer loop
      vertex 1.8834954e+01 -7.5403780e+00 3.8436374e+01
      vertex 1.9612936e+01 -8.9569276e+00 3.4165666e+01
      vertex 1.8454834e+01 -8.4280405e+00 3.8436374e+01
    endloop
  endfacet
  facet normal -8.8096826e-01 3.7725261e-01 -2.8561406e-01
    outer loop
      vertex 2.0016909e+01 -8.0135614e+00 3.4165666e+01
      vertex 1.9612936e+01 -8.9569276e+00 3.4165666e+01
      vertex 1.8834954e+01 -7.5403780e+00 3.8436374e+01
    endloop
  endfacet
  facet normal -9.5590297e-01 6.8367530e-02 -2.8561406e-01
    outer loop
      vertex 2.4080397e+01 -1.1470907e+00 2.5624250e+01
      vertex 2.3998541e+01 -2.2915828e+00 2.5624250e+01
      vertex 2.2731153e+01 -2.1705619e+00 2.9894958e+01
    endloop
  endfacet
  facet normal -9.2568992e-01 2.4803787e-01 -2.8561406e-01
    outer loop
      vertex 2.0953614e+01 -5.0832917e+00 3.4165666e+01
      vertex 2.1909590e+01 -6.4332360e+00 2.9894958e+01
      vertex 2.0688008e+01 -6.0745472e+00 3.4165666e+01
    endloop
  endfacet
  facet normal -9.2568992e-01 2.4803787e-01 -2.8561406e-01
    outer loop
      vertex 2.2190879e+01 -5.3834490e+00 2.9894958e+01
      vertex 2.1909590e+01 -6.4332360e+00 2.9894958e+01
      vertex 2.0953614e+01 -5.0832917e+00 3.4165666e+01
    endloop
  endfacet
  facet normal -8.4111903e-01 4.5928574e-01 -2.8561406e-01
    outer loop
      vertex 1.8032909e+01 -9.2966108e+00 3.8436374e+01
      vertex 1.9164533e+01 -9.8800035e+00 3.4165666e+01
      vertex 1.5364967e+01 -8.8709678e+00 4.6977791e+01
    endloop
  endfacet
  facet normal -8.6202002e-01 4.1874347e-01 -2.8561406e-01
    outer loop
      vertex 1.8454834e+01 -8.4280405e+00 3.8436374e+01
      vertex 1.9164533e+01 -9.8800035e+00 3.4165666e+01
      vertex 1.8032909e+01 -9.2966108e+00 3.8436374e+01
    endloop
  endfacet
  facet normal -8.6202002e-01 4.1874347e-01 -2.8561406e-01
    outer loop
      vertex 1.9612936e+01 -8.9569276e+00 3.4165666e+01
      vertex 1.9164533e+01 -9.8800035e+00 3.4165666e+01
      vertex 1.8454834e+01 -8.4280405e+00 3.8436374e+01
    endloop
  endfacet
  facet normal -9.5156720e-01 1.1377379e-01 -2.8561406e-01
    outer loop
      vertex 2.3998541e+01 -2.2915828e+00 2.5624250e+01
      vertex 2.3862321e+01 -3.4308838e+00 2.5624250e+01
      vertex 2.2731153e+01 -2.1705619e+00 2.9894958e+01
    endloop
  endfacet
  facet normal -9.5156720e-01 1.1377379e-01 -2.8561406e-01
    outer loop
      vertex 2.2731153e+01 -2.1705619e+00 2.9894958e+01
      vertex 2.3862321e+01 -3.4308838e+00 2.5624250e+01
      vertex 2.2602127e+01 -3.2496952e+00 2.9894958e+01
    endloop
  endfacet
  facet normal -9.4507582e-01 1.5892231e-01 -2.8561406e-01
    outer loop
      vertex 2.2602127e+01 -3.2496952e+00 2.9894958e+01
      vertex 2.3862321e+01 -3.4308838e+00 2.5624250e+01
      vertex 2.2421899e+01 -4.3214669e+00 2.9894958e+01
    endloop
  endfacet
  facet normal -9.1283931e-01 2.9180302e-01 -2.8561406e-01
    outer loop
      vertex 2.0688008e+01 -6.0745472e+00 3.4165666e+01
      vertex 2.1578668e+01 -7.4684495e+00 2.9894958e+01
      vertex 2.0375537e+01 -7.0520418e+00 3.4165666e+01
    endloop
  endfacet
  facet normal -8.9792082e-01 3.3490715e-01 -2.8561406e-01
    outer loop
      vertex 2.0375537e+01 -7.0520418e+00 3.4165666e+01
      vertex 2.1578668e+01 -7.4684495e+00 2.9894958e+01
      vertex 2.0016909e+01 -8.0135614e+00 3.4165666e+01
    endloop
  endfacet
  facet normal -9.1283931e-01 2.9180302e-01 -2.8561406e-01
    outer loop
      vertex 2.1909590e+01 -6.4332360e+00 2.9894958e+01
      vertex 2.1578668e+01 -7.4684495e+00 2.9894958e+01
      vertex 2.0688008e+01 -6.0745472e+00 3.4165666e+01
    endloop
  endfacet
  facet normal -9.4507582e-01 1.5892231e-01 -2.8561406e-01
    outer loop
      vertex 2.3862321e+01 -3.4308838e+00 2.5624250e+01
      vertex 2.3672045e+01 -4.5624127e+00 2.5624250e+01
      vertex 2.2421899e+01 -4.3214669e+00 2.9894958e+01
    endloop
  endfacet
  facet normal -8.9792082e-01 3.3490715e-01 -2.8561406e-01
    outer loop
      vertex 2.1578668e+01 -7.4684495e+00 2.9894958e+01
      vertex 2.1198863e+01 -8.4867447e+00 2.9894958e+01
      vertex 2.0016909e+01 -8.0135614e+00 3.4165666e+01
    endloop
  endfacet
  facet normal -9.5807332e-01 2.2806398e-02 -2.8561406e-01
    outer loop
      vertex 1.7741936e+01 1.0431165e-14 4.6977791e+01
      vertex 2.5352108e+01 -1.2076698e+00 2.1353541e+01
      vertex 2.4080397e+01 -1.1470907e+00 2.5624250e+01
    endloop
  endfacet
  facet normal -9.5807332e-01 2.2806398e-02 -2.8561406e-01
    outer loop
      vertex 3.1746623e+01 0.0000000e+00 0.0000000e+00
      vertex 2.5352108e+01 -1.2076698e+00 2.1353541e+01
      vertex 1.7741936e+01 1.0431165e-14 4.6977791e+01
    endloop
  endfacet
  facet normal -9.3644354e-01 2.0371082e-01 -2.8561406e-01
    outer loop
      vertex 2.2421899e+01 -4.3214669e+00 2.9894958e+01
      vertex 2.3428144e+01 -5.6836063e+00 2.5624250e+01
      vertex 2.2190879e+01 -5.3834490e+00 2.9894958e+01
    endloop
  endfacet
  facet normal -9.3644354e-01 2.0371082e-01 -2.8561406e-01
    outer loop
      vertex 2.3672045e+01 -4.5624127e+00 2.5624250e+01
      vertex 2.3428144e+01 -5.6836063e+00 2.5624250e+01
      vertex 2.2421899e+01 -4.3214669e+00 2.9894958e+01
    endloop
  endfacet
  facet normal -9.2568992e-01 2.4803787e-01 -2.8561406e-01
    outer loop
      vertex 2.2190879e+01 -5.3834490e+00 2.9894958e+01
      vertex 2.3428144e+01 -5.6836063e+00 2.5624250e+01
      vertex 2.1909590e+01 -6.4332360e+00 2.9894958e+01
    endloop
  endfacet
  facet normal -8.8096826e-01 3.7725261e-01 -2.8561406e-01
    outer loop
      vertex 2.1198863e+01 -8.4867447e+00 2.9894958e+01
      vertex 2.0771037e+01 -9.4858146e+00 2.9894958e+01
      vertex 2.0016909e+01 -8.0135614e+00 3.4165666e+01
    endloop
  endfacet
  facet normal -8.8096826e-01 3.7725261e-01 -2.8561406e-01
    outer loop
      vertex 2.0016909e+01 -8.0135614e+00 3.4165666e+01
      vertex 2.0771037e+01 -9.4858146e+00 2.9894958e+01
      vertex 1.9612936e+01 -8.9569276e+00 3.4165666e+01
    endloop
  endfacet
  facet normal -9.5590297e-01 6.8367530e-02 -2.8561406e-01
    outer loop
      vertex 2.5352108e+01 -1.2076698e+00 2.1353541e+01
      vertex 2.5265930e+01 -2.4126038e+00 2.1353541e+01
      vertex 2.4080397e+01 -1.1470907e+00 2.5624250e+01
    endloop
  endfacet
  facet normal -9.5590297e-01 6.8367530e-02 -2.8561406e-01
    outer loop
      vertex 2.4080397e+01 -1.1470907e+00 2.5624250e+01
      vertex 2.5265930e+01 -2.4126038e+00 2.1353541e+01
      vertex 2.3998541e+01 -2.2915828e+00 2.5624250e+01
    endloop
  endfacet
  facet normal -9.2568992e-01 2.4803787e-01 -2.8561406e-01
    outer loop
      vertex 2.3428144e+01 -5.6836063e+00 2.5624250e+01
      vertex 2.3131171e+01 -6.7919247e+00 2.5624250e+01
      vertex 2.1909590e+01 -6.4332360e+00 2.9894958e+01
    endloop
  endfacet
  facet normal -8.6202002e-01 4.1874347e-01 -2.8561406e-01
    outer loop
      vertex 2.0771037e+01 -9.4858146e+00 2.9894958e+01
      vertex 2.0296157e+01 -1.0463396e+01 2.9894958e+01
      vertex 1.9612936e+01 -8.9569276e+00 3.4165666e+01
    endloop
  endfacet
  facet normal -8.4111903e-01 4.5928574e-01 -2.8561406e-01
    outer loop
      vertex 1.9164533e+01 -9.8800035e+00 3.4165666e+01
      vertex 2.0296157e+01 -1.0463396e+01 2.9894958e+01
      vertex 1.5364967e+01 -8.8709678e+00 4.6977791e+01
    endloop
  endfacet
  facet normal -8.6202002e-01 4.1874347e-01 -2.8561406e-01
    outer loop
      vertex 1.9612936e+01 -8.9569276e+00 3.4165666e+01
      vertex 2.0296157e+01 -1.0463396e+01 2.9894958e+01
      vertex 1.9164533e+01 -9.8800035e+00 3.4165666e+01
    endloop
  endfacet
  facet normal -9.5156720e-01 1.1377379e-01 -2.8561406e-01
    outer loop
      vertex 2.5265930e+01 -2.4126038e+00 2.1353541e+01
      vertex 2.5122516e+01 -3.6120724e+00 2.1353541e+01
      vertex 2.3998541e+01 -2.2915828e+00 2.5624250e+01
    endloop
  endfacet
  facet normal -9.5156720e-01 1.1377379e-01 -2.8561406e-01
    outer loop
      vertex 2.3998541e+01 -2.2915828e+00 2.5624250e+01
      vertex 2.5122516e+01 -3.6120724e+00 2.1353541e+01
      vertex 2.3862321e+01 -3.4308838e+00 2.5624250e+01
    endloop
  endfacet
  facet normal -8.9792082e-01 3.3490715e-01 -2.8561406e-01
    outer loop
      vertex 2.1578668e+01 -7.4684495e+00 2.9894958e+01
      vertex 2.2781799e+01 -7.8848572e+00 2.5624250e+01
      vertex 2.1198863e+01 -8.4867447e+00 2.9894958e+01
    endloop
  endfacet
  facet normal -9.1283931e-01 2.9180302e-01 -2.8561406e-01
    outer loop
      vertex 2.3131171e+01 -6.7919247e+00 2.5624250e+01
      vertex 2.2781799e+01 -7.8848572e+00 2.5624250e+01
      vertex 2.1909590e+01 -6.4332360e+00 2.9894958e+01
    endloop
  endfacet
  facet normal -9.1283931e-01 2.9180302e-01 -2.8561406e-01
    outer loop
      vertex 2.1909590e+01 -6.4332360e+00 2.9894958e+01
      vertex 2.2781799e+01 -7.8848572e+00 2.5624250e+01
      vertex 2.1578668e+01 -7.4684495e+00 2.9894958e+01
    endloop
  endfacet
  facet normal -9.4507582e-01 1.5892231e-01 -2.8561406e-01
    outer loop
      vertex 2.3862321e+01 -3.4308838e+00 2.5624250e+01
      vertex 2.4922191e+01 -4.8033586e+00 2.1353541e+01
      vertex 2.3672045e+01 -4.5624127e+00 2.5624250e+01
    endloop
  endfacet
  facet normal -9.3644354e-01 2.0371082e-01 -2.8561406e-01
    outer loop
      vertex 2.3672045e+01 -4.5624127e+00 2.5624250e+01
      vertex 2.4922191e+01 -4.8033586e+00 2.1353541e+01
      vertex 2.3428144e+01 -5.6836063e+00 2.5624250e+01
    endloop
  endfacet
  facet normal -9.4507582e-01 1.5892231e-01 -2.8561406e-01
    outer loop
      vertex 2.5122516e+01 -3.6120724e+00 2.1353541e+01
      vertex 2.4922191e+01 -4.8033586e+00 2.1353541e+01
      vertex 2.3862321e+01 -3.4308838e+00 2.5624250e+01
    endloop
  endfacet
  facet normal -8.9792082e-01 3.3490715e-01 -2.8561406e-01
    outer loop
      vertex 2.2781799e+01 -7.8848572e+00 2.5624250e+01
      vertex 2.2380818e+01 -8.9599280e+00 2.5624250e+01
      vertex 2.1198863e+01 -8.4867447e+00 2.9894958e+01
    endloop
  endfacet
  facet normal -9.5807332e-01 2.2806398e-02 -2.8561406e-01
    outer loop
      vertex 3.1746623e+01 0.0000000e+00 0.0000000e+00
      vertex 2.6623820e+01 -1.2682488e+00 1.7082833e+01
      vertex 2.5352108e+01 -1.2076698e+00 2.1353541e+01
    endloop
  endfacet
  facet normal -9.3644354e-01 2.0371082e-01 -2.8561406e-01
    outer loop
      vertex 2.4922191e+01 -4.8033586e+00 2.1353541e+01
      vertex 2.4665410e+01 -5.9837636e+00 2.1353541e+01
      vertex 2.3428144e+01 -5.6836063e+00 2.5624250e+01
    endloop
  endfacet
  facet normal -8.8096826e-01 3.7725261e-01 -2.8561406e-01
    outer loop
      vertex 2.1198863e+01 -8.4867447e+00 2.9894958e+01
      vertex 2.1929138e+01 -1.0014702e+01 2.5624250e+01
      vertex 2.0771037e+01 -9.4858146e+00 2.9894958e+01
    endloop
  endfacet
  facet normal -8.8096826e-01 3.7725261e-01 -2.8561406e-01
    outer loop
      vertex 2.2380818e+01 -8.9599280e+00 2.5624250e+01
      vertex 2.1929138e+01 -1.0014702e+01 2.5624250e+01
      vertex 2.1198863e+01 -8.4867447e+00 2.9894958e+01
    endloop
  endfacet
  facet normal -9.5590297e-01 6.8367530e-02 -2.8561406e-01
    outer loop
      vertex 2.5352108e+01 -1.2076698e+00 2.1353541e+01
      vertex 2.6533318e+01 -2.5336247e+00 1.7082833e+01
      vertex 2.5265930e+01 -2.4126038e+00 2.1353541e+01
    endloop
  endfacet
  facet normal -9.5590297e-01 6.8367530e-02 -2.8561406e-01
    outer loop
      vertex 2.6623820e+01 -1.2682488e+00 1.7082833e+01
      vertex 2.6533318e+01 -2.5336247e+00 1.7082833e+01
      vertex 2.5352108e+01 -1.2076698e+00 2.1353541e+01
    endloop
  endfacet
  facet normal -9.2568992e-01 2.4803787e-01 -2.8561406e-01
    outer loop
      vertex 2.3428144e+01 -5.6836063e+00 2.5624250e+01
      vertex 2.4352753e+01 -7.1506135e+00 2.1353541e+01
      vertex 2.3131171e+01 -6.7919247e+00 2.5624250e+01
    endloop
  endfacet
  facet normal -9.2568992e-01 2.4803787e-01 -2.8561406e-01
    outer loop
      vertex 2.4665410e+01 -5.9837636e+00 2.1353541e+01
      vertex 2.4352753e+01 -7.1506135e+00 2.1353541e+01
      vertex 2.3428144e+01 -5.6836063e+00 2.5624250e+01
    endloop
  endfacet
  facet normal -8.4111903e-01 4.5928574e-01 -2.8561406e-01
    outer loop
      vertex 2.0296157e+01 -1.0463396e+01 2.9894958e+01
      vertex 2.1427781e+01 -1.1046789e+01 2.5624250e+01
      vertex 1.5364967e+01 -8.8709678e+00 4.6977791e+01
    endloop
  endfacet
  facet normal -8.6202002e-01 4.1874347e-01 -2.8561406e-01
    outer loop
      vertex 2.1929138e+01 -1.0014702e+01 2.5624250e+01
      vertex 2.1427781e+01 -1.1046789e+01 2.5624250e+01
      vertex 2.0771037e+01 -9.4858146e+00 2.9894958e+01
    endloop
  endfacet
  facet normal -8.6202002e-01 4.1874347e-01 -2.8561406e-01
    outer loop
      vertex 2.0771037e+01 -9.4858146e+00 2.9894958e+01
      vertex 2.1427781e+01 -1.1046789e+01 2.5624250e+01
      vertex 2.0296157e+01 -1.0463396e+01 2.9894958e+01
    endloop
  endfacet
  facet normal -9.4507582e-01 1.5892231e-01 -2.8561406e-01
    outer loop
      vertex 2.5122516e+01 -3.6120724e+00 2.1353541e+01
      vertex 2.6382710e+01 -3.7932611e+00 1.7082833e+01
      vertex 2.4922191e+01 -4.8033586e+00 2.1353541e+01
    endloop
  endfacet
  facet normal -9.5156720e-01 1.1377379e-01 -2.8561406e-01
    outer loop
      vertex 2.6533318e+01 -2.5336247e+00 1.7082833e+01
      vertex 2.6382710e+01 -3.7932611e+00 1.7082833e+01
      vertex 2.5265930e+01 -2.4126038e+00 2.1353541e+01
    endloop
  endfacet
  facet normal -9.5156720e-01 1.1377379e-01 -2.8561406e-01
    outer loop
      vertex 2.5265930e+01 -2.4126038e+00 2.1353541e+01
      vertex 2.6382710e+01 -3.7932611e+00 1.7082833e+01
      vertex 2.5122516e+01 -3.6120724e+00 2.1353541e+01
    endloop
  endfacet
  facet normal -9.1283931e-01 2.9180302e-01 -2.8561406e-01
    outer loop
      vertex 2.3131171e+01 -6.7919247e+00 2.5624250e+01
      vertex 2.3984930e+01 -8.3012649e+00 2.1353541e+01
      vertex 2.2781799e+01 -7.8848572e+00 2.5624250e+01
    endloop
  endfacet
  facet normal -8.9792082e-01 3.3490715e-01 -2.8561406e-01
    outer loop
      vertex 2.2781799e+01 -7.8848572e+00 2.5624250e+01
      vertex 2.3984930e+01 -8.3012649e+00 2.1353541e+01
      vertex 2.2380818e+01 -8.9599280e+00 2.5624250e+01
    endloop
  endfacet
  facet normal -9.1283931e-01 2.9180302e-01 -2.8561406e-01
    outer loop
      vertex 2.4352753e+01 -7.1506135e+00 2.1353541e+01
      vertex 2.3984930e+01 -8.3012649e+00 2.1353541e+01
      vertex 2.3131171e+01 -6.7919247e+00 2.5624250e+01
    endloop
  endfacet
  facet normal -9.4507582e-01 1.5892231e-01 -2.8561406e-01
    outer loop
      vertex 2.6382710e+01 -3.7932611e+00 1.7082833e+01
      vertex 2.6172337e+01 -5.0443045e+00 1.7082833e+01
      vertex 2.4922191e+01 -4.8033586e+00 2.1353541e+01
    endloop
  endfacet
  facet normal -8.9792082e-01 3.3490715e-01 -2.8561406e-01
    outer loop
      vertex 2.3984930e+01 -8.3012649e+00 2.1353541e+01
      vertex 2.3562773e+01 -9.4331113e+00 2.1353541e+01
      vertex 2.2380818e+01 -8.9599280e+00 2.5624250e+01
    endloop
  endfacet
  facet normal -9.5807332e-01 2.2806398e-02 -2.8561406e-01
    outer loop
      vertex 3.1746623e+01 0.0000000e+00 0.0000000e+00
      vertex 2.7895531e+01 -1.3288279e+00 1.2812125e+01
      vertex 2.6623820e+01 -1.2682488e+00 1.7082833e+01
    endloop
  endfacet
  facet normal -9.3644354e-01 2.0371082e-01 -2.8561406e-01
    outer loop
      vertex 2.4922191e+01 -4.8033586e+00 2.1353541e+01
      vertex 2.5902675e+01 -6.2839209e+00 1.7082833e+01
      vertex 2.4665410e+01 -5.9837636e+00 2.1353541e+01
    endloop
  endfacet
  facet normal -9.3644354e-01 2.0371082e-01 -2.8561406e-01
    outer loop
      vertex 2.6172337e+01 -5.0443045e+00 1.7082833e+01
      vertex 2.5902675e+01 -6.2839209e+00 1.7082833e+01
      vertex 2.4922191e+01 -4.8033586e+00 2.1353541e+01
    endloop
  endfacet
  facet normal -8.8096826e-01 3.7725261e-01 -2.8561406e-01
    outer loop
      vertex 2.2380818e+01 -8.9599280e+00 2.5624250e+01
      vertex 2.3087239e+01 -1.0543589e+01 2.1353541e+01
      vertex 2.1929138e+01 -1.0014702e+01 2.5624250e+01
    endloop
  endfacet
  facet normal -8.6202002e-01 4.1874347e-01 -2.8561406e-01
    outer loop
      vertex 2.1929138e+01 -1.0014702e+01 2.5624250e+01
      vertex 2.3087239e+01 -1.0543589e+01 2.1353541e+01
      vertex 2.1427781e+01 -1.1046789e+01 2.5624250e+01
    endloop
  endfacet
  facet normal -8.8096826e-01 3.7725261e-01 -2.8561406e-01
    outer loop
      vertex 2.3562773e+01 -9.4331113e+00 2.1353541e+01
      vertex 2.3087239e+01 -1.0543589e+01 2.1353541e+01
      vertex 2.2380818e+01 -8.9599280e+00 2.5624250e+01
    endloop
  endfacet
  facet normal -9.5590297e-01 6.8367530e-02 -2.8561406e-01
    outer loop
      vertex 2.6623820e+01 -1.2682488e+00 1.7082833e+01
      vertex 2.7800707e+01 -2.6546456e+00 1.2812125e+01
      vertex 2.6533318e+01 -2.5336247e+00 1.7082833e+01
    endloop
  endfacet
  facet normal -9.5590297e-01 6.8367530e-02 -2.8561406e-01
    outer loop
      vertex 2.7895531e+01 -1.3288279e+00 1.2812125e+01
      vertex 2.7800707e+01 -2.6546456e+00 1.2812125e+01
      vertex 2.6623820e+01 -1.2682488e+00 1.7082833e+01
    endloop
  endfacet
  facet normal -9.2568992e-01 2.4803787e-01 -2.8561406e-01
    outer loop
      vertex 2.4665410e+01 -5.9837636e+00 2.1353541e+01
      vertex 2.5574335e+01 -7.5093023e+00 1.7082833e+01
      vertex 2.4352753e+01 -7.1506135e+00 2.1353541e+01
    endloop
  endfacet
  facet normal -9.2568992e-01 2.4803787e-01 -2.8561406e-01
    outer loop
      vertex 2.5902675e+01 -6.2839209e+00 1.7082833e+01
      vertex 2.5574335e+01 -7.5093023e+00 1.7082833e+01
      vertex 2.4665410e+01 -5.9837636e+00 2.1353541e+01
    endloop
  endfacet
  facet normal -8.4111903e-01 4.5928574e-01 -2.8561406e-01
    outer loop
      vertex 1.5364967e+01 -8.8709678e+00 4.6977791e+01
      vertex 2.2559405e+01 -1.1630181e+01 2.1353541e+01
      vertex 2.7493382e+01 -1.5873312e+01 3.5245832e-15
    endloop
  endfacet
  facet normal -8.4111903e-01 4.5928574e-01 -2.8561406e-01
    outer loop
      vertex 2.1427781e+01 -1.1046789e+01 2.5624250e+01
      vertex 2.2559405e+01 -1.1630181e+01 2.1353541e+01
      vertex 1.5364967e+01 -8.8709678e+00 4.6977791e+01
    endloop
  endfacet
  facet normal -8.6202002e-01 4.1874347e-01 -2.8561406e-01
    outer loop
      vertex 2.3087239e+01 -1.0543589e+01 2.1353541e+01
      vertex 2.2559405e+01 -1.1630181e+01 2.1353541e+01
      vertex 2.1427781e+01 -1.1046789e+01 2.5624250e+01
    endloop
  endfacet
  facet normal -9.5156720e-01 1.1377379e-01 -2.8561406e-01
    outer loop
      vertex 2.6533318e+01 -2.5336247e+00 1.7082833e+01
      vertex 2.7642905e+01 -3.9744497e+00 1.2812125e+01
      vertex 2.6382710e+01 -3.7932611e+00 1.7082833e+01
    endloop
  endfacet
  facet normal -9.5156720e-01 1.1377379e-01 -2.8561406e-01
    outer loop
      vertex 2.7800707e+01 -2.6546456e+00 1.2812125e+01
      vertex 2.7642905e+01 -3.9744497e+00 1.2812125e+01
      vertex 2.6533318e+01 -2.5336247e+00 1.7082833e+01
    endloop
  endfacet
  facet normal -8.9792082e-01 3.3490715e-01 -2.8561406e-01
    outer loop
      vertex 2.3984930e+01 -8.3012649e+00 2.1353541e+01
      vertex 2.5188061e+01 -8.7176726e+00 1.7082833e+01
      vertex 2.3562773e+01 -9.4331113e+00 2.1353541e+01
    endloop
  endfacet
  facet normal -9.1283931e-01 2.9180302e-01 -2.8561406e-01
    outer loop
      vertex 2.5574335e+01 -7.5093023e+00 1.7082833e+01
      vertex 2.5188061e+01 -8.7176726e+00 1.7082833e+01
      vertex 2.4352753e+01 -7.1506135e+00 2.1353541e+01
    endloop
  endfacet
  facet normal -9.1283931e-01 2.9180302e-01 -2.8561406e-01
    outer loop
      vertex 2.4352753e+01 -7.1506135e+00 2.1353541e+01
      vertex 2.5188061e+01 -8.7176726e+00 1.7082833e+01
      vertex 2.3984930e+01 -8.3012649e+00 2.1353541e+01
    endloop
  endfacet
  facet normal -9.4507582e-01 1.5892231e-01 -2.8561406e-01
    outer loop
      vertex 2.7642905e+01 -3.9744497e+00 1.2812125e+01
      vertex 2.7422483e+01 -5.2852504e+00 1.2812125e+01
      vertex 2.6382710e+01 -3.7932611e+00 1.7082833e+01
    endloop
  endfacet
  facet normal -9.4507582e-01 1.5892231e-01 -2.8561406e-01
    outer loop
      vertex 2.6382710e+01 -3.7932611e+00 1.7082833e+01
      vertex 2.7422483e+01 -5.2852504e+00 1.2812125e+01
      vertex 2.6172337e+01 -5.0443045e+00 1.7082833e+01
    endloop
  endfacet
  facet normal -8.9792082e-01 3.3490715e-01 -2.8561406e-01
    outer loop
      vertex 2.5188061e+01 -8.7176726e+00 1.7082833e+01
      vertex 2.4744728e+01 -9.9062947e+00 1.7082833e+01
      vertex 2.3562773e+01 -9.4331113e+00 2.1353541e+01
    endloop
  endfacet
  facet normal -9.5807332e-01 2.2806398e-02 -2.8561406e-01
    outer loop
      vertex 3.1746623e+01 0.0000000e+00 0.0000000e+00
      vertex 2.9167242e+01 -1.3894070e+00 8.5414165e+00
      vertex 2.7895531e+01 -1.3288279e+00 1.2812125e+01
    endloop
  endfacet
  facet normal -9.3644354e-01 2.0371082e-01 -2.8561406e-01
    outer loop
      vertex 2.6172337e+01 -5.0443045e+00 1.7082833e+01
      vertex 2.7139940e+01 -6.5840782e+00 1.2812125e+01
      vertex 2.5902675e+01 -6.2839209e+00 1.7082833e+01
    endloop
  endfacet
  facet normal -9.3644354e-01 2.0371082e-01 -2.8561406e-01
    outer loop
      vertex 2.7422483e+01 -5.2852504e+00 1.2812125e+01
      vertex 2.7139940e+01 -6.5840782e+00 1.2812125e+01
      vertex 2.6172337e+01 -5.0443045e+00 1.7082833e+01
    endloop
  endfacet
  facet normal -8.8096826e-01 3.7725261e-01 -2.8561406e-01
    outer loop
      vertex 2.3562773e+01 -9.4331113e+00 2.1353541e+01
      vertex 2.4245340e+01 -1.1072476e+01 1.7082833e+01
      vertex 2.3087239e+01 -1.0543589e+01 2.1353541e+01
    endloop
  endfacet
  facet normal -8.8096826e-01 3.7725261e-01 -2.8561406e-01
    outer loop
      vertex 2.4744728e+01 -9.9062947e+00 1.7082833e+01
      vertex 2.4245340e+01 -1.1072476e+01 1.7082833e+01
      vertex 2.3562773e+01 -9.4331113e+00 2.1353541e+01
    endloop
  endfacet
  facet normal -9.5590297e-01 6.8367530e-02 -2.8561406e-01
    outer loop
      vertex 2.7895531e+01 -1.3288279e+00 1.2812125e+01
      vertex 2.9068095e+01 -2.7756665e+00 8.5414165e+00
      vertex 2.7800707e+01 -2.6546456e+00 1.2812125e+01
    endloop
  endfacet
  facet normal -9.5590297e-01 6.8367530e-02 -2.8561406e-01
    outer loop
      vertex 2.9167242e+01 -1.3894070e+00 8.5414165e+00
      vertex 2.9068095e+01 -2.7756665e+00 8.5414165e+00
      vertex 2.7895531e+01 -1.3288279e+00 1.2812125e+01
    endloop
  endfacet
  facet normal -9.2568992e-01 2.4803787e-01 -2.8561406e-01
    outer loop
      vertex 2.5902675e+01 -6.2839209e+00 1.7082833e+01
      vertex 2.6795917e+01 -7.8679911e+00 1.2812125e+01
      vertex 2.5574335e+01 -7.5093023e+00 1.7082833e+01
    endloop
  endfacet
  facet normal -9.2568992e-01 2.4803787e-01 -2.8561406e-01
    outer loop
      vertex 2.7139940e+01 -6.5840782e+00 1.2812125e+01
      vertex 2.6795917e+01 -7.8679911e+00 1.2812125e+01
      vertex 2.5902675e+01 -6.2839209e+00 1.7082833e+01
    endloop
  endfacet
  facet normal -8.6202002e-01 4.1874347e-01 -2.8561406e-01
    outer loop
      vertex 2.4245340e+01 -1.1072476e+01 1.7082833e+01
      vertex 2.3691029e+01 -1.2213574e+01 1.7082833e+01
      vertex 2.3087239e+01 -1.0543589e+01 2.1353541e+01
    endloop
  endfacet
  facet normal -8.4111903e-01 4.5928574e-01 -2.8561406e-01
    outer loop
      vertex 2.2559405e+01 -1.1630181e+01 2.1353541e+01
      vertex 2.3691029e+01 -1.2213574e+01 1.7082833e+01
      vertex 2.7493382e+01 -1.5873312e+01 3.5245832e-15
    endloop
  endfacet
  facet normal -8.6202002e-01 4.1874347e-01 -2.8561406e-01
    outer loop
      vertex 2.3087239e+01 -1.0543589e+01 2.1353541e+01
      vertex 2.3691029e+01 -1.2213574e+01 1.7082833e+01
      vertex 2.2559405e+01 -1.1630181e+01 2.1353541e+01
    endloop
  endfacet
  facet normal -9.5156720e-01 1.1377379e-01 -2.8561406e-01
    outer loop
      vertex 2.9068095e+01 -2.7756665e+00 8.5414165e+00
      vertex 2.8903099e+01 -4.1556383e+00 8.5414165e+00
      vertex 2.7800707e+01 -2.6546456e+00 1.2812125e+01
    endloop
  endfacet
  facet normal -9.4507582e-01 1.5892231e-01 -2.8561406e-01
    outer loop
      vertex 2.7642905e+01 -3.9744497e+00 1.2812125e+01
      vertex 2.8903099e+01 -4.1556383e+00 8.5414165e+00
      vertex 2.7422483e+01 -5.2852504e+00 1.2812125e+01
    endloop
  endfacet
  facet normal -9.5156720e-01 1.1377379e-01 -2.8561406e-01
    outer loop
      vertex 2.7800707e+01 -2.6546456e+00 1.2812125e+01
      vertex 2.8903099e+01 -4.1556383e+00 8.5414165e+00
      vertex 2.7642905e+01 -3.9744497e+00 1.2812125e+01
    endloop
  endfacet
  facet normal -9.1283931e-01 2.9180302e-01 -2.8561406e-01
    outer loop
      vertex 2.6795917e+01 -7.8679911e+00 1.2812125e+01
      vertex 2.6391192e+01 -9.1340803e+00 1.2812125e+01
      vertex 2.5574335e+01 -7.5093023e+00 1.7082833e+01
    endloop
  endfacet
  facet normal -9.1283931e-01 2.9180302e-01 -2.8561406e-01
    outer loop
      vertex 2.5574335e+01 -7.5093023e+00 1.7082833e+01
      vertex 2.6391192e+01 -9.1340803e+00 1.2812125e+01
      vertex 2.5188061e+01 -8.7176726e+00 1.7082833e+01
    endloop
  endfacet
  facet normal -9.4507582e-01 1.5892231e-01 -2.8561406e-01
    outer loop
      vertex 2.8903099e+01 -4.1556383e+00 8.5414165e+00
      vertex 2.8672629e+01 -5.5261962e+00 8.5414165e+00
      vertex 2.7422483e+01 -5.2852504e+00 1.2812125e+01
    endloop
  endfacet
  facet normal -8.9792082e-01 3.3490715e-01 -2.8561406e-01
    outer loop
      vertex 2.6391192e+01 -9.1340803e+00 1.2812125e+01
      vertex 2.5926683e+01 -1.0379478e+01 1.2812125e+01
      vertex 2.5188061e+01 -8.7176726e+00 1.7082833e+01
    endloop
  endfacet
  facet normal -8.9792082e-01 3.3490715e-01 -2.8561406e-01
    outer loop
      vertex 2.5188061e+01 -8.7176726e+00 1.7082833e+01
      vertex 2.5926683e+01 -1.0379478e+01 1.2812125e+01
      vertex 2.4744728e+01 -9.9062947e+00 1.7082833e+01
    endloop
  endfacet
  facet normal -9.5728864e-01 1.2531595e-02 -2.8886229e-01
    outer loop
      vertex 3.1735745e+01 -8.3102972e-01 1.8452567e-16
      vertex 3.0438954e+01 -1.4499861e+00 4.2707083e+00
      vertex 3.1746623e+01 0.0000000e+00 0.0000000e+00
    endloop
  endfacet
  facet normal -9.5768575e-01 3.7627576e-02 -2.8534569e-01
    outer loop
      vertex 3.1703116e+01 -1.6614899e+00 3.6892487e-16
      vertex 3.0438954e+01 -1.4499861e+00 4.2707083e+00
      vertex 3.1735745e+01 -8.3102972e-01 1.8452567e-16
    endloop
  endfacet
  facet normal -9.5613978e-01 6.2668712e-02 -2.8612822e-01
    outer loop
      vertex 3.1648759e+01 -2.4908114e+00 5.5307122e-16
      vertex 3.0438954e+01 -1.4499861e+00 4.2707083e+00
      vertex 3.1703116e+01 -1.6614899e+00 3.6892487e-16
    endloop
  endfacet
  facet normal -9.5807332e-01 2.2806398e-02 -2.8561406e-01
    outer loop
      vertex 3.1746623e+01 0.0000000e+00 0.0000000e+00
      vertex 3.0438954e+01 -1.4499861e+00 4.2707083e+00
      vertex 2.9167242e+01 -1.3894070e+00 8.5414165e+00
    endloop
  endfacet
  facet normal -9.3644354e-01 2.0371082e-01 -2.8561406e-01
    outer loop
      vertex 2.7422483e+01 -5.2852504e+00 1.2812125e+01
      vertex 2.8377205e+01 -6.8842355e+00 8.5414165e+00
      vertex 2.7139940e+01 -6.5840782e+00 1.2812125e+01
    endloop
  endfacet
  facet normal -9.3644354e-01 2.0371082e-01 -2.8561406e-01
    outer loop
      vertex 2.8672629e+01 -5.5261962e+00 8.5414165e+00
      vertex 2.8377205e+01 -6.8842355e+00 8.5414165e+00
      vertex 2.7422483e+01 -5.2852504e+00 1.2812125e+01
    endloop
  endfacet
  facet normal -8.8096826e-01 3.7725261e-01 -2.8561406e-01
    outer loop
      vertex 2.4744728e+01 -9.9062947e+00 1.7082833e+01
      vertex 2.5403441e+01 -1.1601363e+01 1.2812125e+01
      vertex 2.4245340e+01 -1.1072476e+01 1.7082833e+01
    endloop
  endfacet
  facet normal -8.8096826e-01 3.7725261e-01 -2.8561406e-01
    outer loop
      vertex 2.5926683e+01 -1.0379478e+01 1.2812125e+01
      vertex 2.5403441e+01 -1.1601363e+01 1.2812125e+01
      vertex 2.4744728e+01 -9.9062947e+00 1.7082833e+01
    endloop
  endfacet
  facet normal -8.6202002e-01 4.1874347e-01 -2.8561406e-01
    outer loop
      vertex 2.4245340e+01 -1.1072476e+01 1.7082833e+01
      vertex 2.5403441e+01 -1.1601363e+01 1.2812125e+01
      vertex 2.3691029e+01 -1.2213574e+01 1.7082833e+01
    endloop
  endfacet
  facet normal -9.5540051e-01 6.8331593e-02 -2.8729891e-01
    outer loop
      vertex 3.1648759e+01 -2.4908114e+00 5.5307122e-16
      vertex 3.0335484e+01 -2.8966875e+00 4.2707083e+00
      vertex 3.0438954e+01 -1.4499861e+00 4.2707083e+00
    endloop
  endfacet
  facet normal -9.5445674e-01 8.7702254e-02 -2.8516776e-01
    outer loop
      vertex 3.1572712e+01 -3.3184258e+00 7.3683853e-16
      vertex 3.0335484e+01 -2.8966875e+00 4.2707083e+00
      vertex 3.1648759e+01 -2.4908114e+00 5.5307122e-16
    endloop
  endfacet
  facet normal -9.5137020e-01 1.1260208e-01 -2.8673248e-01
    outer loop
      vertex 3.1475027e+01 -4.1437659e+00 9.2010085e-16
      vertex 3.0335484e+01 -2.8966875e+00 4.2707083e+00
      vertex 3.1572712e+01 -3.3184258e+00 7.3683853e-16
    endloop
  endfacet
  facet normal -9.5590297e-01 6.8367530e-02 -2.8561406e-01
    outer loop
      vertex 3.0438954e+01 -1.4499861e+00 4.2707083e+00
      vertex 3.0335484e+01 -2.8966875e+00 4.2707083e+00
      vertex 2.9167242e+01 -1.3894070e+00 8.5414165e+00
    endloop
  endfacet
  facet normal -9.5590297e-01 6.8367530e-02 -2.8561406e-01
    outer loop
      vertex 2.9167242e+01 -1.3894070e+00 8.5414165e+00
      vertex 3.0335484e+01 -2.8966875e+00 4.2707083e+00
      vertex 2.9068095e+01 -2.7756665e+00 8.5414165e+00
    endloop
  endfacet
  facet normal -9.2568992e-01 2.4803787e-01 -2.8561406e-01
    outer loop
      vertex 2.7139940e+01 -6.5840782e+00 1.2812125e+01
      vertex 2.8017498e+01 -8.2266798e+00 8.5414165e+00
      vertex 2.6795917e+01 -7.8679911e+00 1.2812125e+01
    endloop
  endfacet
  facet normal -9.2568992e-01 2.4803787e-01 -2.8561406e-01
    outer loop
      vertex 2.8377205e+01 -6.8842355e+00 8.5414165e+00
      vertex 2.8017498e+01 -8.2266798e+00 8.5414165e+00
      vertex 2.7139940e+01 -6.5840782e+00 1.2812125e+01
    endloop
  endfacet
  facet normal -8.4111903e-01 4.5928574e-01 -2.8561406e-01
    outer loop
      vertex 2.3691029e+01 -1.2213574e+01 1.7082833e+01
      vertex 2.4822652e+01 -1.2796967e+01 1.2812125e+01
      vertex 2.7493382e+01 -1.5873312e+01 3.5245832e-15
    endloop
  endfacet
  facet normal -8.6202002e-01 4.1874347e-01 -2.8561406e-01
    outer loop
      vertex 2.5403441e+01 -1.1601363e+01 1.2812125e+01
      vertex 2.4822652e+01 -1.2796967e+01 1.2812125e+01
      vertex 2.3691029e+01 -1.2213574e+01 1.7082833e+01
    endloop
  endfacet
  facet normal -9.4856918e-01 1.3753599e-01 -2.8513217e-01
    outer loop
      vertex 3.1355770e+01 -4.9662660e+00 1.1027326e-15
      vertex 3.0163294e+01 -4.3368269e+00 4.2707083e+00
      vertex 3.1475027e+01 -4.1437659e+00 9.2010085e-16
    endloop
  endfacet
  facet normal -9.5156720e-01 1.1377379e-01 -2.8561406e-01
    outer loop
      vertex 2.9068095e+01 -2.7756665e+00 8.5414165e+00
      vertex 3.0163294e+01 -4.3368269e+00 4.2707083e+00
      vertex 2.8903099e+01 -4.1556383e+00 8.5414165e+00
    endloop
  endfacet
  facet normal -9.5156720e-01 1.1377379e-01 -2.8561406e-01
    outer loop
      vertex 3.0335484e+01 -2.8966875e+00 4.2707083e+00
      vertex 3.0163294e+01 -4.3368269e+00 4.2707083e+00
      vertex 2.9068095e+01 -2.7756665e+00 8.5414165e+00
    endloop
  endfacet
  facet normal -9.5115514e-01 1.1372452e-01 -2.8700286e-01
    outer loop
      vertex 3.1475027e+01 -4.1437659e+00 9.2010085e-16
      vertex 3.0163294e+01 -4.3368269e+00 4.2707083e+00
      vertex 3.0335484e+01 -2.8966875e+00 4.2707083e+00
    endloop
  endfacet
  facet normal -9.1283931e-01 2.9180302e-01 -2.8561406e-01
    outer loop
      vertex 2.8017498e+01 -8.2266798e+00 8.5414165e+00
      vertex 2.7594323e+01 -9.5504880e+00 8.5414165e+00
      vertex 2.6795917e+01 -7.8679911e+00 1.2812125e+01
    endloop
  endfacet
  facet normal -9.1283931e-01 2.9180302e-01 -2.8561406e-01
    outer loop
      vertex 2.6795917e+01 -7.8679911e+00 1.2812125e+01
      vertex 2.7594323e+01 -9.5504880e+00 8.5414165e+00
      vertex 2.6391192e+01 -9.1340803e+00 1.2812125e+01
    endloop
  endfacet
  facet normal -8.9792082e-01 3.3490715e-01 -2.8561406e-01
    outer loop
      vertex 2.6391192e+01 -9.1340803e+00 1.2812125e+01
      vertex 2.7594323e+01 -9.5504880e+00 8.5414165e+00
      vertex 2.5926683e+01 -1.0379478e+01 1.2812125e+01
    endloop
  endfacet
  facet normal -9.4461735e-01 1.5884521e-01 -2.8716940e-01
    outer loop
      vertex 3.1355770e+01 -4.9662660e+00 1.1027326e-15
      vertex 2.9922775e+01 -5.7671421e+00 4.2707083e+00
      vertex 3.0163294e+01 -4.3368269e+00 4.2707083e+00
    endloop
  endfacet
  facet normal -9.4507582e-01 1.5892231e-01 -2.8561406e-01
    outer loop
      vertex 3.0163294e+01 -4.3368269e+00 4.2707083e+00
      vertex 2.9922775e+01 -5.7671421e+00 4.2707083e+00
      vertex 2.8903099e+01 -4.1556383e+00 8.5414165e+00
    endloop
  endfacet
  facet normal -9.4426754e-01 1.6225484e-01 -2.8641262e-01
    outer loop
      vertex 3.1215023e+01 -5.7853626e+00 1.2846085e-15
      vertex 2.9922775e+01 -5.7671421e+00 4.2707083e+00
      vertex 3.1355770e+01 -4.9662660e+00 1.1027326e-15
    endloop
  endfacet
  facet normal -9.4003997e-01 1.8698558e-01 -2.8523894e-01
    outer loop
      vertex 3.1052883e+01 -6.6004941e+00 1.4656041e-15
      vertex 2.9922775e+01 -5.7671421e+00 4.2707083e+00
      vertex 3.1215023e+01 -5.7853626e+00 1.2846085e-15
    endloop
  endfacet
  facet normal -9.4507582e-01 1.5892231e-01 -2.8561406e-01
    outer loop
      vertex 2.8903099e+01 -4.1556383e+00 8.5414165e+00
      vertex 2.9922775e+01 -5.7671421e+00 4.2707083e+00
      vertex 2.8672629e+01 -5.5261962e+00 8.5414165e+00
    endloop
  endfacet
  facet normal -8.9792082e-01 3.3490715e-01 -2.8561406e-01
    outer loop
      vertex 2.7594323e+01 -9.5504880e+00 8.5414165e+00
      vertex 2.7108637e+01 -1.0852661e+01 8.5414165e+00
      vertex 2.5926683e+01 -1.0379478e+01 1.2812125e+01
    endloop
  endfacet
  facet normal -9.3644354e-01 2.0371082e-01 -2.8561406e-01
    outer loop
      vertex 2.9922775e+01 -5.7671421e+00 4.2707083e+00
      vertex 2.9614471e+01 -7.1843928e+00 4.2707083e+00
      vertex 2.8672629e+01 -5.5261962e+00 8.5414165e+00
    endloop
  endfacet
  facet normal -9.3644354e-01 2.0371082e-01 -2.8561406e-01
    outer loop
      vertex 2.8672629e+01 -5.5261962e+00 8.5414165e+00
      vertex 2.9614471e+01 -7.1843928e+00 4.2707083e+00
      vertex 2.8377205e+01 -6.8842355e+00 8.5414165e+00
    endloop
  endfacet
  facet normal -9.2568992e-01 2.4803787e-01 -2.8561406e-01
    outer loop
      vertex 2.8377205e+01 -6.8842355e+00 8.5414165e+00
      vertex 2.9614471e+01 -7.1843928e+00 4.2707083e+00
      vertex 2.8017498e+01 -8.2266798e+00 8.5414165e+00
    endloop
  endfacet
  facet normal -9.3463703e-01 2.1148677e-01 -2.8587930e-01
    outer loop
      vertex 3.0869462e+01 -7.4111020e+00 1.6455952e-15
      vertex 2.9614471e+01 -7.1843928e+00 4.2707083e+00
      vertex 3.1052883e+01 -6.6004941e+00 1.4656041e-15
    endloop
  endfacet
  facet normal -9.2889373e-01 2.3590895e-01 -2.8548801e-01
    outer loop
      vertex 3.0664883e+01 -8.2166307e+00 1.8244585e-15
      vertex 2.9614471e+01 -7.1843928e+00 4.2707083e+00
      vertex 3.0869462e+01 -7.4111020e+00 1.6455952e-15
    endloop
  endfacet
  facet normal -9.3592419e-01 2.0359785e-01 -2.8739141e-01
    outer loop
      vertex 3.1052883e+01 -6.6004941e+00 1.4656041e-15
      vertex 2.9614471e+01 -7.1843928e+00 4.2707083e+00
      vertex 2.9922775e+01 -5.7671421e+00 4.2707083e+00
    endloop
  endfacet
  facet normal -8.8096826e-01 3.7725261e-01 -2.8561406e-01
    outer loop
      vertex 2.5926683e+01 -1.0379478e+01 1.2812125e+01
      vertex 2.6561542e+01 -1.2130250e+01 8.5414165e+00
      vertex 2.5403441e+01 -1.1601363e+01 1.2812125e+01
    endloop
  endfacet
  facet normal -8.6202002e-01 4.1874347e-01 -2.8561406e-01
    outer loop
      vertex 2.5403441e+01 -1.1601363e+01 1.2812125e+01
      vertex 2.6561542e+01 -1.2130250e+01 8.5414165e+00
      vertex 2.4822652e+01 -1.2796967e+01 1.2812125e+01
    endloop
  endfacet
  facet normal -8.8096826e-01 3.7725261e-01 -2.8561406e-01
    outer loop
      vertex 2.7108637e+01 -1.0852661e+01 8.5414165e+00
      vertex 2.6561542e+01 -1.2130250e+01 8.5414165e+00
      vertex 2.5926683e+01 -1.0379478e+01 1.2812125e+01
    endloop
  endfacet
  facet normal -9.2515508e-01 2.4789456e-01 -2.8746541e-01
    outer loop
      vertex 3.0664883e+01 -8.2166307e+00 1.8244585e-15
      vertex 2.9239080e+01 -8.5853686e+00 4.2707083e+00
      vertex 2.9614471e+01 -7.1843928e+00 4.2707083e+00
    endloop
  endfacet
  facet normal -9.2240004e-01 2.6014372e-01 -2.8548801e-01
    outer loop
      vertex 3.0439289e+01 -9.0165282e+00 2.0020714e-15
      vertex 2.9239080e+01 -8.5853686e+00 4.2707083e+00
      vertex 3.0664883e+01 -8.2166307e+00 1.8244585e-15
    endloop
  endfacet
  facet normal -9.1516279e-01 2.8416560e-01 -2.8587930e-01
    outer loop
      vertex 3.0192833e+01 -9.8102461e+00 2.1783122e-15
      vertex 2.9239080e+01 -8.5853686e+00 4.2707083e+00
      vertex 3.0439289e+01 -9.0165282e+00 2.0020714e-15
    endloop
  endfacet
  facet normal -9.2568992e-01 2.4803787e-01 -2.8561406e-01
    outer loop
      vertex 2.9614471e+01 -7.1843928e+00 4.2707083e+00
      vertex 2.9239080e+01 -8.5853686e+00 4.2707083e+00
      vertex 2.8017498e+01 -8.2266798e+00 8.5414165e+00
    endloop
  endfacet
  facet normal -8.4111903e-01 4.5928574e-01 -2.8561406e-01
    outer loop
      vertex 2.4822652e+01 -1.2796967e+01 1.2812125e+01
      vertex 2.5954276e+01 -1.3380359e+01 8.5414165e+00
      vertex 2.7493382e+01 -1.5873312e+01 3.5245832e-15
    endloop
  endfacet
  facet normal -8.6202002e-01 4.1874347e-01 -2.8561406e-01
    outer loop
      vertex 2.6561542e+01 -1.2130250e+01 8.5414165e+00
      vertex 2.5954276e+01 -1.3380359e+01 8.5414165e+00
      vertex 2.4822652e+01 -1.2796967e+01 1.2812125e+01
    endloop
  endfacet
  facet normal -9.0759128e-01 3.0808573e-01 -2.8523894e-01
    outer loop
      vertex 2.9925684e+01 -1.0597241e+01 2.3530601e-15
      vertex 2.8797454e+01 -9.9668957e+00 4.2707083e+00
      vertex 3.0192833e+01 -9.8102461e+00 2.1783122e-15
    endloop
  endfacet
  facet normal -8.9888709e-01 3.3161696e-01 -2.8641262e-01
    outer loop
      vertex 2.9638026e+01 -1.1376972e+01 2.5261953e-15
      vertex 2.8797454e+01 -9.9668957e+00 4.2707083e+00
      vertex 2.9925684e+01 -1.0597241e+01 2.3530601e-15
    endloop
  endfacet
  facet normal -8.9792082e-01 3.3490715e-01 -2.8561406e-01
    outer loop
      vertex 2.7594323e+01 -9.5504880e+00 8.5414165e+00
      vertex 2.8797454e+01 -9.9668957e+00 4.2707083e+00
      vertex 2.7108637e+01 -1.0852661e+01 8.5414165e+00
    endloop
  endfacet
  facet normal -9.1233305e-01 2.9164119e-01 -2.8739141e-01
    outer loop
      vertex 3.0192833e+01 -9.8102461e+00 2.1783122e-15
      vertex 2.8797454e+01 -9.9668957e+00 4.2707083e+00
      vertex 2.9239080e+01 -8.5853686e+00 4.2707083e+00
    endloop
  endfacet
  facet normal -9.1283931e-01 2.9180302e-01 -2.8561406e-01
    outer loop
      vertex 2.9239080e+01 -8.5853686e+00 4.2707083e+00
      vertex 2.8797454e+01 -9.9668957e+00 4.2707083e+00
      vertex 2.8017498e+01 -8.2266798e+00 8.5414165e+00
    endloop
  endfacet
  facet normal -9.1283931e-01 2.9180302e-01 -2.8561406e-01
    outer loop
      vertex 2.8017498e+01 -8.2266798e+00 8.5414165e+00
      vertex 2.8797454e+01 -9.9668957e+00 4.2707083e+00
      vertex 2.7594323e+01 -9.5504880e+00 8.5414165e+00
    endloop
  endfacet
  facet normal -8.9792082e-01 3.3490715e-01 -2.8561406e-01
    outer loop
      vertex 2.8797454e+01 -9.9668957e+00 4.2707083e+00
      vertex 2.8290592e+01 -1.1325845e+01 4.2707083e+00
      vertex 2.7108637e+01 -1.0852661e+01 8.5414165e+00
    endloop
  endfacet
  facet normal -8.9025300e-01 3.5517493e-01 -2.8513217e-01
    outer loop
      vertex 2.9330056e+01 -1.2148907e+01 2.6975992e-15
      vertex 2.8290592e+01 -1.1325845e+01 4.2707083e+00
      vertex 2.9638026e+01 -1.1376972e+01 2.5261953e-15
    endloop
  endfacet
  facet normal -8.9748523e-01 3.3474468e-01 -2.8716940e-01
    outer loop
      vertex 2.9638026e+01 -1.1376972e+01 2.5261953e-15
      vertex 2.8290592e+01 -1.1325845e+01 4.2707083e+00
      vertex 2.8797454e+01 -9.9668957e+00 4.2707083e+00
    endloop
  endfacet
  facet normal -8.8021180e-01 3.7816883e-01 -2.8673248e-01
    outer loop
      vertex 2.9001984e+01 -1.2912515e+01 2.8671543e-15
      vertex 2.7719643e+01 -1.2659137e+01 4.2707083e+00
      vertex 2.9330056e+01 -1.2148907e+01 2.6975992e-15
    endloop
  endfacet
  facet normal -8.7043491e-01 4.0127599e-01 -2.8516776e-01
    outer loop
      vertex 2.8654035e+01 -1.3667274e+01 3.0347444e-15
      vertex 2.7719643e+01 -1.2659137e+01 4.2707083e+00
      vertex 2.9001984e+01 -1.2912515e+01 2.8671543e-15
    endloop
  endfacet
  facet normal -8.8058677e-01 3.7708925e-01 -2.8700286e-01
    outer loop
      vertex 2.9330056e+01 -1.2148907e+01 2.6975992e-15
      vertex 2.7719643e+01 -1.2659137e+01 4.2707083e+00
      vertex 2.8290592e+01 -1.1325845e+01 4.2707083e+00
    endloop
  endfacet
  facet normal -8.8096826e-01 3.7725261e-01 -2.8561406e-01
    outer loop
      vertex 2.7108637e+01 -1.0852661e+01 8.5414165e+00
      vertex 2.7719643e+01 -1.2659137e+01 4.2707083e+00
      vertex 2.6561542e+01 -1.2130250e+01 8.5414165e+00
    endloop
  endfacet
  facet normal -8.6202002e-01 4.1874347e-01 -2.8561406e-01
    outer loop
      vertex 2.6561542e+01 -1.2130250e+01 8.5414165e+00
      vertex 2.7719643e+01 -1.2659137e+01 4.2707083e+00
      vertex 2.5954276e+01 -1.3380359e+01 8.5414165e+00
    endloop
  endfacet
  facet normal -8.8096826e-01 3.7725261e-01 -2.8561406e-01
    outer loop
      vertex 2.8290592e+01 -1.1325845e+01 4.2707083e+00
      vertex 2.7719643e+01 -1.2659137e+01 4.2707083e+00
      vertex 2.7108637e+01 -1.0852661e+01 8.5414165e+00
    endloop
  endfacet
  facet normal -8.5937569e-01 4.2379719e-01 -2.8612822e-01
    outer loop
      vertex 2.8286449e+01 -1.4412665e+01 3.2002546e-15
      vertex 2.7085900e+01 -1.3963752e+01 4.2707083e+00
      vertex 2.8654035e+01 -1.3667274e+01 3.0347444e-15
    endloop
  endfacet
  facet normal -8.4819398e-01 4.4625644e-01 -2.8534569e-01
    outer loop
      vertex 2.7899476e+01 -1.5148179e+01 3.3635715e-15
      vertex 2.7085900e+01 -1.3963752e+01 4.2707083e+00
      vertex 2.8286449e+01 -1.4412665e+01 3.2002546e-15
    endloop
  endfacet
  facet normal -8.3530208e-01 4.6779164e-01 -2.8886229e-01
    outer loop
      vertex 2.7493382e+01 -1.5873312e+01 3.5245832e-15
      vertex 2.7085900e+01 -1.3963752e+01 4.2707083e+00
      vertex 2.7899476e+01 -1.5148179e+01 3.3635715e-15
    endloop
  endfacet
  facet normal -8.4111903e-01 4.5928574e-01 -2.8561406e-01
    outer loop
      vertex 2.5954276e+01 -1.3380359e+01 8.5414165e+00
      vertex 2.7085900e+01 -1.3963752e+01 4.2707083e+00
      vertex 2.7493382e+01 -1.5873312e+01 3.5245832e-15
    endloop
  endfacet
  facet normal -8.6156691e-01 4.1852336e-01 -2.8729891e-01
    outer loop
      vertex 2.8654035e+01 -1.3667274e+01 3.0347444e-15
      vertex 2.7085900e+01 -1.3963752e+01 4.2707083e+00
      vertex 2.7719643e+01 -1.2659137e+01 4.2707083e+00
    endloop
  endfacet
  facet normal -8.6202002e-01 4.1874347e-01 -2.8561406e-01
    outer loop
      vertex 2.7719643e+01 -1.2659137e+01 4.2707083e+00
      vertex 2.7085900e+01 -1.3963752e+01 4.2707083e+00
      vertex 2.5954276e+01 -1.3380359e+01 8.5414165e+00
    endloop
  endfacet
endsolid wall-unutra
