solid wedge-wall-coolant
  facet normal -5.0000000e-01 -8.6602540e-01 1.3234443e-16
    outer loop
      vertex 2.9225433e+01 -1.6873312e+01 3.7466278e-15
      vertex 1.5364967e+01 -8.8709678e+00 4.6977791e+01
      vertex 2.7493382e+01 -1.5873312e+01 3.5245832e-15
    endloop
  endfacet
  facet normal -5.0000000e-01 -8.6602540e-01 -6.0254381e-16
    outer loop
      vertex 1.4465165e+01 -8.3514669e+00 5.3737012e+01
      vertex 1.5501855e+01 -8.9500000e+00 5.4120000e+01
      vertex 1.4464214e+01 -8.3509181e+00 5.4423001e+01
    endloop
  endfacet
  facet normal -5.0000000e-01 -8.6602540e-01 3.9575077e-16
    outer loop
      vertex 1.4482415e+01 -8.3614262e+00 5.3051312e+01
      vertex 1.5501855e+01 -8.9500000e+00 5.4120000e+01
      vertex 1.4465165e+01 -8.3514669e+00 5.3737012e+01
    endloop
  endfacet
  facet normal -5.0000000e-01 -8.6602540e-01 -1.3057372e-15
    outer loop
      vertex 1.4515951e+01 -8.3807885e+00 5.2366416e+01
      vertex 1.5501855e+01 -8.9500000e+00 5.4120000e+01
      vertex 1.4482415e+01 -8.3614262e+00 5.3051312e+01
    endloop
  endfacet
  facet normal -5.0000000e-01 -8.6602540e-01 1.0261926e-16
    outer loop
      vertex 1.4565749e+01 -8.4095393e+00 5.1682840e+01
      vertex 1.5501855e+01 -8.9500000e+00 5.4120000e+01
      vertex 1.4515951e+01 -8.3807885e+00 5.2366416e+01
    endloop
  endfacet
  facet normal -5.0000000e-01 -8.6602540e-01 -7.4449602e-16
    outer loop
      vertex 1.4631771e+01 -8.4476569e+00 5.1001099e+01
      vertex 1.5501855e+01 -8.9500000e+00 5.4120000e+01
      vertex 1.4565749e+01 -8.4095393e+00 5.1682840e+01
    endloop
  endfacet
  facet normal -5.0000000e-01 -8.6602540e-01 -1.8577548e-15
    outer loop
      vertex 1.4713967e+01 -8.4951126e+00 5.0321707e+01
      vertex 1.5501855e+01 -8.9500000e+00 5.4120000e+01
      vertex 1.4631771e+01 -8.4476569e+00 5.1001099e+01
    endloop
  endfacet
  facet normal -5.0000000e-01 -8.6602540e-01 -2.1015704e-15
    outer loop
      vertex 1.4812275e+01 -8.5518707e+00 4.9645175e+01
      vertex 1.5501855e+01 -8.9500000e+00 5.4120000e+01
      vertex 1.4713967e+01 -8.4951126e+00 5.0321707e+01
    endloop
  endfacet
  facet normal -5.0000000e-01 -8.6602540e-01 -4.6923108e-17
    outer loop
      vertex 1.5501855e+01 -8.9500000e+00 5.4120000e+01
      vertex 1.5509087e+01 -8.9541754e+00 5.4750418e+01
      vertex 1.4464214e+01 -8.3509181e+00 5.4423001e+01
    endloop
  endfacet
  facet normal -5.0000000e-01 -8.6602540e-01 9.1637167e-16
    outer loop
      vertex 1.4464214e+01 -8.3509181e+00 5.4423001e+01
      vertex 1.5509087e+01 -8.9541754e+00 5.4750418e+01
      vertex 1.4479564e+01 -8.3597803e+00 5.5108762e+01
    endloop
  endfacet
  facet normal -5.0000000e-01 -8.6602540e-01 6.3631494e-16
    outer loop
      vertex 1.5509087e+01 -8.9541754e+00 5.4750418e+01
      vertex 1.5530778e+01 -8.9666986e+00 5.5380394e+01
      vertex 1.4479564e+01 -8.3597803e+00 5.5108762e+01
    endloop
  endfacet
  facet normal -5.0000000e-01 -8.6602540e-01 1.4357945e-16
    outer loop
      vertex 1.4479564e+01 -8.3597803e+00 5.5108762e+01
      vertex 1.5530778e+01 -8.9666986e+00 5.5380394e+01
      vertex 1.4511203e+01 -8.3780468e+00 5.5793778e+01
    endloop
  endfacet
  facet normal -5.0000000e-01 -8.6602540e-01 1.9730457e-15
    outer loop
      vertex 1.5530778e+01 -8.9666986e+00 5.5380394e+01
      vertex 1.5566912e+01 -8.9875609e+00 5.6009486e+01
      vertex 1.4511203e+01 -8.3780468e+00 5.5793778e+01
    endloop
  endfacet
  facet normal -5.0000000e-01 -8.6602540e-01 1.7187054e-15
    outer loop
      vertex 1.4511203e+01 -8.3780468e+00 5.5793778e+01
      vertex 1.5566912e+01 -8.9875609e+00 5.6009486e+01
      vertex 1.4559106e+01 -8.4057038e+00 5.6477534e+01
    endloop
  endfacet
  facet normal -5.0000000e-01 -8.6602540e-01 7.7825066e-16
    outer loop
      vertex 1.5566912e+01 -8.9875609e+00 5.6009486e+01
      vertex 1.5617465e+01 -9.0167476e+00 5.6637251e+01
      vertex 1.4559106e+01 -8.4057038e+00 5.6477534e+01
    endloop
  endfacet
  facet normal -5.0000000e-01 -8.6602540e-01 2.2380449e-15
    outer loop
      vertex 1.4559106e+01 -8.4057038e+00 5.6477534e+01
      vertex 1.5617465e+01 -9.0167476e+00 5.6637251e+01
      vertex 1.4623238e+01 -8.4427305e+00 5.7159515e+01
    endloop
  endfacet
  facet normal -5.0000000e-01 -8.6602540e-01 1.7946323e-15
    outer loop
      vertex 1.5617465e+01 -9.0167476e+00 5.6637251e+01
      vertex 1.5682401e+01 -9.0542383e+00 5.7263250e+01
      vertex 1.4623238e+01 -8.4427305e+00 5.7159515e+01
    endloop
  endfacet
  facet normal -5.0000000e-01 -8.6602540e-01 2.2379321e-15
    outer loop
      vertex 1.4623238e+01 -8.4427305e+00 5.7159515e+01
      vertex 1.5682401e+01 -9.0542383e+00 5.7263250e+01
      vertex 1.4703551e+01 -8.4890990e+00 5.7839208e+01
    endloop
  endfacet
  facet normal -5.0000000e-01 -8.6602540e-01 2.9301939e-15
    outer loop
      vertex 1.5682401e+01 -9.0542383e+00 5.7263250e+01
      vertex 1.5761674e+01 -9.1000065e+00 5.7887043e+01
      vertex 1.4703551e+01 -8.4890990e+00 5.7839208e+01
    endloop
  endfacet
  facet normal -5.0000000e-01 -8.6602540e-01 2.6768907e-15
    outer loop
      vertex 1.4703551e+01 -8.4890990e+00 5.7839208e+01
      vertex 1.5761674e+01 -9.1000065e+00 5.7887043e+01
      vertex 1.4799983e+01 -8.5447744e+00 5.8516100e+01
    endloop
  endfacet
  facet normal -5.0000000e-01 -8.6602540e-01 3.0566275e-15
    outer loop
      vertex 1.4799983e+01 -8.5447744e+00 5.8516100e+01
      vertex 1.5855228e+01 -9.1540203e+00 5.8508193e+01
      vertex 1.4912464e+01 -8.6097149e+00 5.9189682e+01
    endloop
  endfacet
  facet normal -5.0000000e-01 -8.6602540e-01 2.1886655e-15
    outer loop
      vertex 1.5761674e+01 -9.1000065e+00 5.7887043e+01
      vertex 1.5855228e+01 -9.1540203e+00 5.8508193e+01
      vertex 1.4799983e+01 -8.5447744e+00 5.8516100e+01
    endloop
  endfacet
  facet normal -5.0000000e-01 -8.6602540e-01 3.8837081e-15
    outer loop
      vertex 1.4912464e+01 -8.6097149e+00 5.9189682e+01
      vertex 1.5962999e+01 -9.2162417e+00 5.9126263e+01
      vertex 1.5040906e+01 -8.6838714e+00 5.9859447e+01
    endloop
  endfacet
  facet normal -5.0000000e-01 -8.6602540e-01 4.4510352e-15
    outer loop
      vertex 1.5855228e+01 -9.1540203e+00 5.8508193e+01
      vertex 1.5962999e+01 -9.2162417e+00 5.9126263e+01
      vertex 1.4912464e+01 -8.6097149e+00 5.9189682e+01
    endloop
  endfacet
  facet normal -5.0000000e-01 -8.6602540e-01 6.0949898e-15
    outer loop
      vertex 1.5040906e+01 -8.6838714e+00 5.9859447e+01
      vertex 1.6084910e+01 -9.2866270e+00 5.9740820e+01
      vertex 1.5185215e+01 -8.7671882e+00 6.0524891e+01
    endloop
  endfacet
  facet normal -5.0000000e-01 -8.6602540e-01 3.1692191e-15
    outer loop
      vertex 1.5962999e+01 -9.2162417e+00 5.9126263e+01
      vertex 1.6084910e+01 -9.2866270e+00 5.9740820e+01
      vertex 1.5040906e+01 -8.6838714e+00 5.9859447e+01
    endloop
  endfacet
  facet normal -5.0000000e-01 -8.6602540e-01 5.6383433e-15
    outer loop
      vertex 1.5185215e+01 -8.7671882e+00 6.0524891e+01
      vertex 1.6220876e+01 -9.3651269e+00 6.0351433e+01
      vertex 1.5345282e+01 -8.8596024e+00 6.1185512e+01
    endloop
  endfacet
  facet normal -5.0000000e-01 -8.6602540e-01 4.8369282e-15
    outer loop
      vertex 1.6084910e+01 -9.2866270e+00 5.9740820e+01
      vertex 1.6220876e+01 -9.3651269e+00 6.0351433e+01
      vertex 1.5185215e+01 -8.7671882e+00 6.0524891e+01
    endloop
  endfacet
  facet normal -5.0000000e-01 -8.6602540e-01 5.1648533e-15
    outer loop
      vertex 1.5345282e+01 -8.8596024e+00 6.1185512e+01
      vertex 1.6370801e+01 -9.4516862e+00 6.0957673e+01
      vertex 1.5520985e+01 -8.9610447e+00 6.1840814e+01
    endloop
  endfacet
  facet normal -5.0000000e-01 -8.6602540e-01 4.4528666e-15
    outer loop
      vertex 1.6220876e+01 -9.3651269e+00 6.0351433e+01
      vertex 1.6370801e+01 -9.4516862e+00 6.0957673e+01
      vertex 1.5345282e+01 -8.8596024e+00 6.1185512e+01
    endloop
  endfacet
  facet normal -5.0000000e-01 -8.6602540e-01 5.7545941e-15
    outer loop
      vertex 1.5520985e+01 -8.9610447e+00 6.1840814e+01
      vertex 1.6534580e+01 -9.5462443e+00 6.1559115e+01
      vertex 1.5712192e+01 -9.0714385e+00 6.2490302e+01
    endloop
  endfacet
  facet normal -5.0000000e-01 -8.6602540e-01 4.9851494e-15
    outer loop
      vertex 1.6370801e+01 -9.4516862e+00 6.0957673e+01
      vertex 1.6534580e+01 -9.5462443e+00 6.1559115e+01
      vertex 1.5520985e+01 -8.9610447e+00 6.1840814e+01
    endloop
  endfacet
  facet normal -5.0000000e-01 -8.6602540e-01 6.9292318e-15
    outer loop
      vertex 1.6534580e+01 -9.5462443e+00 6.1559115e+01
      vertex 1.6712099e+01 -9.6487347e+00 6.2155336e+01
      vertex 1.5712192e+01 -9.0714385e+00 6.2490302e+01
    endloop
  endfacet
  facet normal -5.0000000e-01 -8.6602540e-01 7.1538885e-15
    outer loop
      vertex 1.6712099e+01 -9.6487347e+00 6.2155336e+01
      vertex 1.5918761e+01 -9.1907008e+00 6.3133488e+01
      vertex 1.5712192e+01 -9.0714385e+00 6.2490302e+01
    endloop
  endfacet
  facet normal -5.0000000e-01 -8.6602540e-01 5.6655745e-15
    outer loop
      vertex 1.6712099e+01 -9.6487347e+00 6.2155336e+01
      vertex 1.6903232e+01 -9.7590856e+00 6.2745918e+01
      vertex 1.5918761e+01 -9.1907008e+00 6.3133488e+01
    endloop
  endfacet
  facet normal -5.0000000e-01 -8.6602540e-01 6.0052980e-15
    outer loop
      vertex 1.6903232e+01 -9.7590856e+00 6.2745918e+01
      vertex 1.6140534e+01 -9.3187417e+00 6.3769887e+01
      vertex 1.5918761e+01 -9.1907008e+00 6.3133488e+01
    endloop
  endfacet
  facet normal -5.0000000e-01 -8.6602540e-01 5.5568472e-15
    outer loop
      vertex 1.6903232e+01 -9.7590856e+00 6.2745918e+01
      vertex 1.7107846e+01 -9.8772195e+00 6.3330448e+01
      vertex 1.6140534e+01 -9.3187417e+00 6.3769887e+01
    endloop
  endfacet
  facet normal -5.0000000e-01 -8.6602540e-01 6.5436008e-15
    outer loop
      vertex 1.7107846e+01 -9.8772195e+00 6.3330448e+01
      vertex 1.6377345e+01 -9.4554648e+00 6.4399021e+01
      vertex 1.6140534e+01 -9.3187417e+00 6.3769887e+01
    endloop
  endfacet
  facet normal -5.0000000e-01 -8.6602540e-01 -6.2497177e-16
    outer loop
      vertex 1.4926621e+01 -8.6178884e+00 4.8972012e+01
      vertex 2.5479108e+01 -1.4710370e+01 5.4120000e+01
      vertex 1.4812275e+01 -8.5518707e+00 4.9645175e+01
    endloop
  endfacet
  facet normal -5.0000000e-01 -8.6602540e-01 -8.9516259e-16
    outer loop
      vertex 1.5056919e+01 -8.6931161e+00 4.8302724e+01
      vertex 2.5479108e+01 -1.4710370e+01 5.4120000e+01
      vertex 1.4926621e+01 -8.6178884e+00 4.8972012e+01
    endloop
  endfacet
  facet normal -5.0000000e-01 -8.6602540e-01 -4.5726007e-16
    outer loop
      vertex 1.5203071e+01 -8.7774971e+00 4.7637817e+01
      vertex 2.5479108e+01 -1.4710370e+01 5.4120000e+01
      vertex 1.5056919e+01 -8.6931161e+00 4.8302724e+01
    endloop
  endfacet
  facet normal -5.0000000e-01 -8.6602540e-01 0.0000000e+00
    outer loop
      vertex 1.5364967e+01 -8.8709678e+00 4.6977791e+01
      vertex 2.5479108e+01 -1.4710370e+01 5.4120000e+01
      vertex 1.5203071e+01 -8.7774971e+00 4.7637817e+01
    endloop
  endfacet
  facet normal -5.0000000e-01 -8.6602540e-01 -4.0314348e-15
    outer loop
      vertex 1.4812275e+01 -8.5518707e+00 4.9645175e+01
      vertex 2.5479108e+01 -1.4710370e+01 5.4120000e+01
      vertex 1.5501855e+01 -8.9500000e+00 5.4120000e+01
    endloop
  endfacet
  facet normal -5.0000000e-01 -8.6602540e-01 7.2458851e-15
    outer loop
      vertex 1.7107846e+01 -9.8772195e+00 6.3330448e+01
      vertex 1.7325797e+01 -1.0003053e+01 6.3908514e+01
      vertex 1.6377345e+01 -9.4554648e+00 6.4399021e+01
    endloop
  endfacet
  facet normal -5.0000000e-01 -8.6602540e-01 7.2851675e-15
    outer loop
      vertex 1.6377345e+01 -9.4554648e+00 6.4399021e+01
      vertex 1.7556932e+01 -1.0136499e+01 6.4479710e+01
      vertex 1.6629017e+01 -9.6007673e+00 6.5020415e+01
    endloop
  endfacet
  facet normal -5.0000000e-01 -8.6602540e-01 8.9525356e-15
    outer loop
      vertex 1.7325797e+01 -1.0003053e+01 6.3908514e+01
      vertex 1.7556932e+01 -1.0136499e+01 6.4479710e+01
      vertex 1.6377345e+01 -9.4554648e+00 6.4399021e+01
    endloop
  endfacet
  facet normal -5.0000000e-01 -8.6602540e-01 -3.0508736e-14
    outer loop
      vertex 1.5364967e+01 -8.8709678e+00 4.6977791e+01
      vertex 2.6778146e+01 -1.5460370e+01 5.4120000e+01
      vertex 2.5479108e+01 -1.4710370e+01 5.4120000e+01
    endloop
  endfacet
  facet normal -5.0000000e-01 -8.6602540e-01 1.9860554e-16
    outer loop
      vertex 2.9225433e+01 -1.6873312e+01 3.7466278e-15
      vertex 2.6778146e+01 -1.5460370e+01 5.4120000e+01
      vertex 1.5364967e+01 -8.8709678e+00 4.6977791e+01
    endloop
  endfacet
  facet normal -5.0000000e-01 -8.6602540e-01 8.0627901e-15
    outer loop
      vertex 1.6629017e+01 -9.6007673e+00 6.5020415e+01
      vertex 1.7801088e+01 -1.0277463e+01 6.5043637e+01
      vertex 1.6895358e+01 -9.7545396e+00 6.5633602e+01
    endloop
  endfacet
  facet normal -5.0000000e-01 -8.6602540e-01 8.6568006e-15
    outer loop
      vertex 1.7556932e+01 -1.0136499e+01 6.4479710e+01
      vertex 1.7801088e+01 -1.0277463e+01 6.5043637e+01
      vertex 1.6629017e+01 -9.6007673e+00 6.5020415e+01
    endloop
  endfacet
  facet normal -5.0000000e-01 -8.6602540e-01 8.4019622e-15
    outer loop
      vertex 1.6895358e+01 -9.7545396e+00 6.5633602e+01
      vertex 1.8058095e+01 -1.0425846e+01 6.5599899e+01
      vertex 1.7176170e+01 -9.9166661e+00 6.6238120e+01
    endloop
  endfacet
  facet normal -5.0000000e-01 -8.6602540e-01 8.9848091e-15
    outer loop
      vertex 1.7801088e+01 -1.0277463e+01 6.5043637e+01
      vertex 1.8058095e+01 -1.0425846e+01 6.5599899e+01
      vertex 1.6895358e+01 -9.7545396e+00 6.5633602e+01
    endloop
  endfacet
  facet normal -5.0000000e-01 -8.6602540e-01 1.0631098e-14
    outer loop
      vertex 1.7176170e+01 -9.9166661e+00 6.6238120e+01
      vertex 1.8327773e+01 -1.0581545e+01 6.6148104e+01
      vertex 1.7471239e+01 -1.0087025e+01 6.6833514e+01
    endloop
  endfacet
  facet normal -5.0000000e-01 -8.6602540e-01 8.2128959e-15
    outer loop
      vertex 1.8058095e+01 -1.0425846e+01 6.5599899e+01
      vertex 1.8327773e+01 -1.0581545e+01 6.6148104e+01
      vertex 1.7176170e+01 -9.9166661e+00 6.6238120e+01
    endloop
  endfacet
  facet normal -5.0000000e-01 -8.6602540e-01 8.1688578e-15
    outer loop
      vertex 1.7471239e+01 -1.0087025e+01 6.6833514e+01
      vertex 1.8609931e+01 -1.0744449e+01 6.6687869e+01
      vertex 1.7780345e+01 -1.0265487e+01 6.7419336e+01
    endloop
  endfacet
  facet normal -5.0000000e-01 -8.6602540e-01 9.6409036e-15
    outer loop
      vertex 1.8327773e+01 -1.0581545e+01 6.6148104e+01
      vertex 1.8609931e+01 -1.0744449e+01 6.6687869e+01
      vertex 1.7471239e+01 -1.0087025e+01 6.6833514e+01
    endloop
  endfacet
  facet normal -5.0000000e-01 -8.6602540e-01 1.2255281e-14
    outer loop
      vertex 1.7780345e+01 -1.0265487e+01 6.7419336e+01
      vertex 1.8904372e+01 -1.0914444e+01 6.7218814e+01
      vertex 1.8103254e+01 -1.0451919e+01 6.7995144e+01
    endloop
  endfacet
  facet normal -5.0000000e-01 -8.6602540e-01 7.3668174e-15
    outer loop
      vertex 1.8609931e+01 -1.0744449e+01 6.6687869e+01
      vertex 1.8904372e+01 -1.0914444e+01 6.7218814e+01
      vertex 1.7780345e+01 -1.0265487e+01 6.7419336e+01
    endloop
  endfacet
  facet normal -5.0000000e-01 -8.6602540e-01 1.3270036e-14
    outer loop
      vertex 1.8103254e+01 -1.0451919e+01 6.7995144e+01
      vertex 1.9210889e+01 -1.1091412e+01 6.7740567e+01
      vertex 1.8439724e+01 -1.0646179e+01 6.8560505e+01
    endloop
  endfacet
  facet normal -5.0000000e-01 -8.6602540e-01 1.0627029e-14
    outer loop
      vertex 1.8904372e+01 -1.0914444e+01 6.7218814e+01
      vertex 1.9210889e+01 -1.1091412e+01 6.7740567e+01
      vertex 1.8103254e+01 -1.0451919e+01 6.7995144e+01
    endloop
  endfacet
  facet normal -5.0000000e-01 -8.6602540e-01 1.3300215e-14
    outer loop
      vertex 1.9210889e+01 -1.1091412e+01 6.7740567e+01
      vertex 1.9529268e+01 -1.1275228e+01 6.8252762e+01
      vertex 1.8439724e+01 -1.0646179e+01 6.8560505e+01
    endloop
  endfacet
  facet normal -5.0000000e-01 -8.6602540e-01 1.3237950e-14
    outer loop
      vertex 1.9529268e+01 -1.1275228e+01 6.8252762e+01
      vertex 1.8789500e+01 -1.0848123e+01 6.9114993e+01
      vertex 1.8439724e+01 -1.0646179e+01 6.8560505e+01
    endloop
  endfacet
  facet normal -5.0000000e-01 -8.6602540e-01 1.2602502e-14
    outer loop
      vertex 1.9529268e+01 -1.1275228e+01 6.8252762e+01
      vertex 1.9859284e+01 -1.1465763e+01 6.8755040e+01
      vertex 1.8789500e+01 -1.0848123e+01 6.9114993e+01
    endloop
  endfacet
  facet normal -5.0000000e-01 -8.6602540e-01 1.3577134e-14
    outer loop
      vertex 1.9859284e+01 -1.1465763e+01 6.8755040e+01
      vertex 1.9152320e+01 -1.1057597e+01 6.9658191e+01
      vertex 1.8789500e+01 -1.0848123e+01 6.9114993e+01
    endloop
  endfacet
  facet normal -5.0000000e-01 -8.6602540e-01 1.4139697e-14
    outer loop
      vertex 1.9859284e+01 -1.1465763e+01 6.8755040e+01
      vertex 2.0200707e+01 -1.1662883e+01 6.9247047e+01
      vertex 1.9152320e+01 -1.1057597e+01 6.9658191e+01
    endloop
  endfacet
  facet normal -5.0000000e-01 -8.6602540e-01 1.3713481e-14
    outer loop
      vertex 2.0200707e+01 -1.1662883e+01 6.9247047e+01
      vertex 1.9527911e+01 -1.1274444e+01 7.0189690e+01
      vertex 1.9152320e+01 -1.1057597e+01 6.9658191e+01
    endloop
  endfacet
  facet normal -5.0000000e-01 -8.6602540e-01 1.3479172e-14
    outer loop
      vertex 2.0200707e+01 -1.1662883e+01 6.9247047e+01
      vertex 2.0553296e+01 -1.1866451e+01 6.9728439e+01
      vertex 1.9527911e+01 -1.1274444e+01 7.0189690e+01
    endloop
  endfacet
  facet normal -5.0000000e-01 -8.6602540e-01 1.4174993e-14
    outer loop
      vertex 2.0553296e+01 -1.1866451e+01 6.9728439e+01
      vertex 6.1262342e+01 -3.5369830e+01 1.2762121e+02
      vertex 1.9527911e+01 -1.1274444e+01 7.0189690e+01
    endloop
  endfacet
  facet normal -5.0000000e-01 -8.6602540e-01 1.5977981e-14
    outer loop
      vertex 2.0553296e+01 -1.1866451e+01 6.9728439e+01
      vertex 6.2907790e+01 -3.6319830e+01 1.2602571e+02
      vertex 6.1262342e+01 -3.5369830e+01 1.2762121e+02
    endloop
  endfacet
  facet normal -5.0000000e-01 -8.6602540e-01 2.1146233e-16
    outer loop
      vertex 6.1262342e+01 -3.5369830e+01 1.2762121e+02
      vertex 6.2907790e+01 -3.6319830e+01 2.7762121e+02
      vertex 6.1262342e+01 -3.5369830e+01 2.7762121e+02
    endloop
  endfacet
  facet normal -5.0000000e-01 -8.6602540e-01 1.9501385e-16
    outer loop
      vertex 6.9282032e+01 -4.0000000e+01 1.1985087e+02
      vertex 6.9282032e+01 -4.0000000e+01 2.7762121e+02
      vertex 6.6077738e+01 -3.8150000e+01 1.2284589e+02
    endloop
  endfacet
  facet normal -5.0000000e-01 -8.6602540e-01 2.7326367e-16
    outer loop
      vertex 6.2907790e+01 -3.6319830e+01 1.2602571e+02
      vertex 6.2907790e+01 -3.6319830e+01 2.7762121e+02
      vertex 6.1262342e+01 -3.5369830e+01 1.2762121e+02
    endloop
  endfacet
  facet normal -5.0000000e-01 -8.6602540e-01 -1.2130851e-14
    outer loop
      vertex 6.6077738e+01 -3.8150000e+01 1.2284589e+02
      vertex 2.5479108e+01 -1.4710370e+01 5.4120000e+01
      vertex 2.6778146e+01 -1.5460370e+01 5.4120000e+01
    endloop
  endfacet
  facet normal -5.0000000e-01 -8.6602540e-01 -7.2110871e-15
    outer loop
      vertex 6.6077738e+01 -3.8150000e+01 1.2284589e+02
      vertex 2.6778146e+01 -1.5460370e+01 5.4120000e+01
      vertex 6.9282032e+01 -4.0000000e+01 1.1985087e+02
    endloop
  endfacet
  facet normal -5.0000000e-01 -8.6602540e-01 2.0493802e-16
    outer loop
      vertex 6.6077738e+01 -3.8150000e+01 2.7762121e+02
      vertex 6.6077738e+01 -3.8150000e+01 1.2284589e+02
      vertex 6.9282032e+01 -4.0000000e+01 2.7762121e+02
    endloop
  endfacet
endsolid wedge-wall-coolant
